<svg xmlns="http://www.w3.org/2000/svg" width="756" height="99" fill="none"><g fill="#D7E0E3" clip-path="url(#a)"><path d="M102.224 45.135a87.165 87.165 0 0 1 11.658-2.712c-.159-6.571-1.033-12.002-1.666-15.123-2.607.965-6.819 2.703-11.6 5.315a50.832 50.832 0 0 1 1.528 9.622c.059.97.085 1.936.08 2.898ZM117.575 70.586c3.922-7.924 6.09-15.715 7.137-21.005-14.385.621-45.474-2.637-56.17 39.557-.72 2.839-2.038 6.822-3.107 9.854 3.296-.457 35.183 5.857 52.14-28.406Z"/><path d="M124.098 69.748a80.684 80.684 0 0 1-1.598 3.346c-6.292 12.362-14.874 20.984-25.625 25.802 30.733 3.559 56.589-15.447 56.589-15.447s-12.064-9.112-29.366-13.7ZM72.418 64.074c5.639-6.785 12.995-12.16 22.035-16.076.725-.314 1.448-.611 2.168-.894.087-1.492.097-2.996.008-4.512C95.458 22.586 79.801 5.71 74.385.441 70.944 3.88 63.317 12.21 58.09 23.133c-4.114 8.599-5.916 16.901-5.427 24.868 8.181 4.01 14.78 9.385 19.756 16.073ZM25.579 71.663c-.125-.239-.24-.472-.36-.71C9.953 75.834 10.756 75.32 0 83.45c0 0 25 18.378 55.05 15.61C42.62 94.38 32.726 85.193 25.58 71.664ZM23.023 48.473c1.146 5.192 3.356 12.866 7.443 20.605 7.19 13.616 17.37 22.367 30.282 26.043.298-.825 2.044-14.736 8.403-25.374C58.927 51.205 34.328 48.72 23.023 48.473ZM48.665 32.965c-5.05-2.817-9.521-4.66-12.248-5.668-.614 3.062-1.467 8.345-1.654 14.729 3.961.81 8.154 1.954 12.355 3.564-.017-4.145.49-8.36 1.547-12.625ZM186.9 82l6.3-14h2.56l6.32 14h-2.72l-5.42-12.62h1.04L189.58 82h-2.68Zm2.9-3.24.7-2.04h7.56l.7 2.04h-8.96ZM225.997 82V70.2h-4.64V68h11.88v2.2h-4.64V82h-2.6Zm54.719 0V68h2.14l6.12 10.22h-1.12l6.02-10.22h2.14l.02 14h-2.46l-.02-10.14h.52l-5.12 8.54h-1.16l-5.2-8.54h.6V82h-2.48Zm41.502-8.18h6.96v2.14h-6.96v-2.14Zm.2 6h7.9V82h-10.5V68h10.22v2.18h-7.62v9.64ZM353.216 82V68h5.76c1.24 0 2.3.2 3.18.6.893.4 1.58.973 2.06 1.72s.72 1.633.72 2.66c0 1.027-.24 1.913-.72 2.66-.48.733-1.167 1.3-2.06 1.7-.88.387-1.94.58-3.18.58h-4.32l1.16-1.18V82h-2.6Zm9.16 0-3.54-5.08h2.78l3.56 5.08h-2.8Zm-6.56-4.98-1.16-1.24h4.2c1.147 0 2.007-.247 2.58-.74.587-.493.88-1.18.88-2.06 0-.893-.293-1.58-.88-2.06-.573-.48-1.433-.72-2.58-.72h-4.2l1.16-1.28v8.1ZM387.845 82V68h2.6v14h-2.6Zm26.387 0V68h6.12c1.52 0 2.853.293 4 .88 1.146.587 2.04 1.4 2.68 2.44.64 1.04.96 2.267.96 3.68 0 1.4-.32 2.627-.96 3.68-.64 1.04-1.534 1.853-2.68 2.44-1.147.587-2.48.88-4 .88h-6.12Zm2.6-2.2h3.4c1.053 0 1.96-.2 2.72-.6.773-.4 1.366-.96 1.78-1.68.426-.72.64-1.56.64-2.52 0-.973-.214-1.813-.64-2.52a4.257 4.257 0 0 0-1.78-1.68c-.76-.4-1.667-.6-2.72-.6h-3.4v9.6Zm33.923 2.2V68h2.6v14h-2.6Zm24.407 0 6.3-14h2.56l6.32 14h-2.72l-5.42-12.62h1.04l-5.4 12.62h-2.68Zm2.9-3.24.7-2.04h7.56l.7 2.04h-8.96Zm34.06 3.24V68h2.14l8.78 10.78h-1.06V68h2.58v14h-2.14l-8.78-10.78h1.06V82h-2.58Zm61.719 0V68h5.76c1.24 0 2.3.2 3.18.6.893.4 1.58.973 2.06 1.72s.72 1.633.72 2.66c0 1.027-.24 1.913-.72 2.66-.48.747-1.167 1.32-2.06 1.72-.88.4-1.94.6-3.18.6h-4.32l1.16-1.22V82h-2.6Zm2.6-4.98-1.16-1.26h4.2c1.147 0 2.007-.24 2.58-.72.587-.493.88-1.18.88-2.06 0-.893-.293-1.58-.88-2.06-.573-.48-1.433-.72-2.58-.72h-4.2l1.16-1.28v8.1ZM605.474 82l6.3-14h2.56l6.32 14h-2.72l-5.42-12.62h1.04l-5.4 12.62h-2.68Zm2.9-3.24.7-2.04h7.56l.7 2.04h-8.96ZM642.435 82V68h5.76c1.24 0 2.3.2 3.18.6.893.4 1.58.973 2.06 1.72s.72 1.633.72 2.66c0 1.027-.24 1.913-.72 2.66-.48.733-1.167 1.3-2.06 1.7-.88.387-1.94.58-3.18.58h-4.32l1.16-1.18V82h-2.6Zm9.16 0-3.54-5.08h2.78l3.56 5.08h-2.8Zm-6.56-4.98-1.16-1.24h4.2c1.146 0 2.006-.247 2.58-.74.586-.493.88-1.18.88-2.06 0-.893-.294-1.58-.88-2.06-.574-.48-1.434-.72-2.58-.72h-4.2l1.16-1.28v8.1Zm34.349 1.68-.14-3.08 7.34-7.62h2.92l-6.1 6.48-1.44 1.58-2.58 2.64Zm-2.32 3.3V68h2.6v14h-2.6Zm9.76 0-5.36-6.38 1.72-1.9 6.68 8.28h-3.04ZM186.76 48V20h11.52c2.48 0 4.6.4 6.36 1.2 1.787.8 3.16 1.947 4.12 3.44.96 1.493 1.44 3.267 1.44 5.32 0 2.053-.48 3.827-1.44 5.32-.96 1.467-2.333 2.6-4.12 3.4-1.76.773-3.88 1.16-6.36 1.16h-8.64l2.32-2.36V48h-5.2Zm18.32 0L198 37.84h5.56L210.68 48h-5.6Zm-13.12-9.96-2.32-2.48h8.4c2.293 0 4.013-.493 5.16-1.48 1.173-.987 1.76-2.36 1.76-4.12 0-1.787-.587-3.16-1.76-4.12-1.147-.96-2.867-1.44-5.16-1.44h-8.4l2.32-2.56v16.2ZM210.058 48l12.6-28h5.12l12.64 28h-5.44l-10.84-25.24h2.08L215.418 48h-5.36Zm5.8-6.48 1.4-4.08h15.12l1.4 4.08h-17.92ZM241.979 48V20h12.24c3.04 0 5.706.587 8 1.76 2.293 1.173 4.08 2.8 5.36 4.88 1.28 2.08 1.92 4.533 1.92 7.36 0 2.8-.64 5.253-1.92 7.36-1.28 2.08-3.067 3.707-5.36 4.88-2.294 1.173-4.96 1.76-8 1.76h-12.24Zm5.2-4.4h6.8c2.106 0 3.92-.4 5.44-1.2 1.546-.8 2.733-1.92 3.56-3.36.853-1.44 1.28-3.12 1.28-5.04 0-1.947-.427-3.627-1.28-5.04-.827-1.44-2.014-2.56-3.56-3.36-1.52-.8-3.334-1.2-5.44-1.2h-6.8v19.2Zm25.847 4.4V20h5.2v28h-5.2Zm6.813 0 12.6-28h5.12l12.64 28h-5.44l-10.84-25.24h2.08L285.199 48h-5.36Zm5.8-6.48 1.4-4.08h15.12l1.4 4.08h-17.92ZM316.034 48V24.4h-9.28V20h23.76v4.4h-9.28V48h-5.2Zm16.382 0V20h5.2v28h-5.2Zm23.894.4c-2.187 0-4.2-.36-6.04-1.08-1.84-.72-3.44-1.72-4.8-3a13.863 13.863 0 0 1-3.16-4.56c-.747-1.76-1.12-3.68-1.12-5.76 0-2.08.373-3.987 1.12-5.72.746-1.76 1.8-3.28 3.16-4.56 1.36-1.307 2.96-2.32 4.8-3.04 1.84-.72 3.84-1.08 6-1.08 2.186 0 4.186.36 6 1.08 1.84.72 3.44 1.733 4.8 3.04 1.36 1.28 2.413 2.8 3.16 4.56.746 1.733 1.12 3.64 1.12 5.72 0 2.08-.374 4-1.12 5.76-.747 1.76-1.8 3.28-3.16 4.56-1.36 1.28-2.96 2.28-4.8 3-1.814.72-3.8 1.08-5.96 1.08Zm-.04-4.56c1.413 0 2.72-.24 3.92-.72 1.2-.48 2.24-1.16 3.12-2.04a9.726 9.726 0 0 0 2.04-3.12c.506-1.2.76-2.52.76-3.96s-.254-2.747-.76-3.92a9.179 9.179 0 0 0-2.04-3.12 8.9 8.9 0 0 0-3.12-2.08c-1.2-.48-2.507-.72-3.92-.72-1.414 0-2.72.24-3.92.72a9.4 9.4 0 0 0-3.12 2.08 9.681 9.681 0 0 0-2.08 3.12c-.48 1.173-.72 2.48-.72 3.92 0 1.413.24 2.72.72 3.92a10.16 10.16 0 0 0 2.08 3.16c.88.88 1.92 1.56 3.12 2.04 1.2.48 2.506.72 3.92.72ZM374.862 48V20h4.28l17.56 21.56h-2.12V20h5.16v28h-4.28l-17.56-21.56h2.12V48h-5.16Zm52.557.4c-2.187 0-4.2-.36-6.04-1.08-1.84-.72-3.44-1.72-4.8-3a13.878 13.878 0 0 1-3.16-4.56c-.747-1.76-1.12-3.68-1.12-5.76 0-2.08.373-3.987 1.12-5.72.747-1.76 1.8-3.28 3.16-4.56 1.36-1.307 2.96-2.32 4.8-3.04 1.84-.72 3.84-1.08 6-1.08 2.187 0 4.187.36 6 1.08 1.84.72 3.44 1.733 4.8 3.04 1.36 1.28 2.413 2.8 3.16 4.56.747 1.733 1.12 3.64 1.12 5.72 0 2.08-.373 4-1.12 5.76-.747 1.76-1.8 3.28-3.16 4.56-1.36 1.28-2.96 2.28-4.8 3-1.813.72-3.8 1.08-5.96 1.08Zm-.04-4.56c1.413 0 2.72-.24 3.92-.72 1.2-.48 2.24-1.16 3.12-2.04a9.726 9.726 0 0 0 2.04-3.12c.507-1.2.76-2.52.76-3.96s-.253-2.747-.76-3.92a9.179 9.179 0 0 0-2.04-3.12 8.9 8.9 0 0 0-3.12-2.08c-1.2-.48-2.507-.72-3.92-.72-1.413 0-2.72.24-3.92.72a9.42 9.42 0 0 0-3.12 2.08 9.697 9.697 0 0 0-2.08 3.12c-.48 1.173-.72 2.48-.72 3.92 0 1.413.24 2.72.72 3.92.507 1.2 1.2 2.253 2.08 3.16.88.88 1.92 1.56 3.12 2.04 1.2.48 2.507.72 3.92.72ZM445.971 48V20h4.28l17.56 21.56h-2.12V20h5.16v28h-4.28l-17.56-21.56h2.12V48h-5.16Zm43.343.4c-2.134 0-4.12-.347-5.96-1.04-1.814-.72-3.4-1.72-4.76-3a14.035 14.035 0 0 1-3.12-4.6c-.747-1.76-1.12-3.68-1.12-5.76 0-2.08.373-4 1.12-5.76.746-1.76 1.8-3.28 3.16-4.56a14.009 14.009 0 0 1 4.76-3c1.813-.72 3.8-1.08 5.96-1.08 2.293 0 4.386.4 6.28 1.2a12.26 12.26 0 0 1 4.8 3.48l-3.36 3.16c-1.014-1.093-2.147-1.907-3.4-2.44-1.254-.56-2.614-.84-4.08-.84-1.467 0-2.814.24-4.04.72a9.61 9.61 0 0 0-3.16 2.04 9.681 9.681 0 0 0-2.08 3.12c-.48 1.2-.72 2.52-.72 3.96s.24 2.76.72 3.96c.506 1.2 1.2 2.24 2.08 3.12a9.61 9.61 0 0 0 3.16 2.04c1.226.48 2.573.72 4.04.72 1.466 0 2.826-.267 4.08-.8 1.253-.56 2.386-1.4 3.4-2.52l3.36 3.2c-1.307 1.52-2.907 2.68-4.8 3.48-1.894.8-4 1.2-6.32 1.2Zm26.636 0c-2.186 0-4.2-.36-6.04-1.08-1.84-.72-3.44-1.72-4.8-3a13.878 13.878 0 0 1-3.16-4.56c-.746-1.76-1.12-3.68-1.12-5.76 0-2.08.374-3.987 1.12-5.72.747-1.76 1.8-3.28 3.16-4.56 1.36-1.307 2.96-2.32 4.8-3.04 1.84-.72 3.84-1.08 6-1.08 2.187 0 4.187.36 6 1.08 1.84.72 3.44 1.733 4.8 3.04 1.36 1.28 2.414 2.8 3.16 4.56.747 1.733 1.12 3.64 1.12 5.72 0 2.08-.373 4-1.12 5.76-.746 1.76-1.8 3.28-3.16 4.56-1.36 1.28-2.96 2.28-4.8 3-1.813.72-3.8 1.08-5.96 1.08Zm-.04-4.56c1.414 0 2.72-.24 3.92-.72 1.2-.48 2.24-1.16 3.12-2.04a9.726 9.726 0 0 0 2.04-3.12c.507-1.2.76-2.52.76-3.96s-.253-2.747-.76-3.92a9.179 9.179 0 0 0-2.04-3.12 8.9 8.9 0 0 0-3.12-2.08c-1.2-.48-2.506-.72-3.92-.72-1.413 0-2.72.24-3.92.72a9.42 9.42 0 0 0-3.12 2.08 9.697 9.697 0 0 0-2.08 3.12c-.48 1.173-.72 2.48-.72 3.92 0 1.413.24 2.72.72 3.92.507 1.2 1.2 2.253 2.08 3.16.88.88 1.92 1.56 3.12 2.04 1.2.48 2.507.72 3.92.72ZM534.502 48V20h5.2v23.6h14.64V48h-19.84Zm34.558.4c-2.187 0-4.2-.36-6.04-1.08-1.84-.72-3.44-1.72-4.8-3a13.863 13.863 0 0 1-3.16-4.56c-.747-1.76-1.12-3.68-1.12-5.76 0-2.08.373-3.987 1.12-5.72.746-1.76 1.8-3.28 3.16-4.56 1.36-1.307 2.96-2.32 4.8-3.04 1.84-.72 3.84-1.08 6-1.08 2.186 0 4.186.36 6 1.08 1.84.72 3.44 1.733 4.8 3.04 1.36 1.28 2.413 2.8 3.16 4.56.746 1.733 1.12 3.64 1.12 5.72 0 2.08-.374 4-1.12 5.76-.747 1.76-1.8 3.28-3.16 4.56-1.36 1.28-2.96 2.28-4.8 3-1.814.72-3.8 1.08-5.96 1.08Zm-.04-4.56c1.413 0 2.72-.24 3.92-.72 1.2-.48 2.24-1.16 3.12-2.04a9.726 9.726 0 0 0 2.04-3.12c.506-1.2.76-2.52.76-3.96s-.254-2.747-.76-3.92a9.179 9.179 0 0 0-2.04-3.12 8.9 8.9 0 0 0-3.12-2.08c-1.2-.48-2.507-.72-3.92-.72-1.414 0-2.72.24-3.92.72a9.4 9.4 0 0 0-3.12 2.08 9.681 9.681 0 0 0-2.08 3.12c-.48 1.173-.72 2.48-.72 3.92 0 1.413.24 2.72.72 3.92a10.16 10.16 0 0 0 2.08 3.16c.88.88 1.92 1.56 3.12 2.04 1.2.48 2.506.72 3.92.72Zm31.672 4.56c-2.187 0-4.2-.347-6.04-1.04-1.814-.72-3.4-1.72-4.76-3a13.754 13.754 0 0 1-3.16-4.6c-.747-1.76-1.12-3.68-1.12-5.76 0-2.08.373-4 1.12-5.76.746-1.76 1.8-3.28 3.16-4.56 1.386-1.307 3-2.307 4.84-3 1.84-.72 3.853-1.08 6.04-1.08 2.373 0 4.506.387 6.4 1.16 1.92.773 3.533 1.907 4.84 3.4l-3.28 3.2c-1.094-1.093-2.28-1.893-3.56-2.4-1.254-.533-2.64-.8-4.16-.8-1.467 0-2.827.24-4.08.72-1.254.48-2.334 1.16-3.24 2.04a9.368 9.368 0 0 0-2.12 3.12c-.48 1.2-.72 2.52-.72 3.96 0 1.413.24 2.72.72 3.92a9.816 9.816 0 0 0 2.12 3.16 9.51 9.51 0 0 0 3.2 2.04c1.226.48 2.586.72 4.08.72 1.386 0 2.72-.213 4-.64 1.306-.453 2.546-1.2 3.72-2.24l2.96 3.88c-1.467 1.173-3.174 2.067-5.12 2.68-1.92.587-3.867.88-5.84.88Zm6.04-4.24V33.68h4.92v11.16l-4.92-.68ZM623.39 48V36.92l1.16 3.2L612.39 20h5.56l9.76 16.2h-3.12l9.84-16.2h5.12l-12.16 20.12 1.2-3.2V48h-5.2Zm39.58.4c-2.133 0-4.12-.347-5.96-1.04-1.813-.72-3.4-1.72-4.76-3a14.065 14.065 0 0 1-3.12-4.6c-.747-1.76-1.12-3.68-1.12-5.76 0-2.08.373-4 1.12-5.76.747-1.76 1.8-3.28 3.16-4.56a14.018 14.018 0 0 1 4.76-3c1.813-.72 3.8-1.08 5.96-1.08 2.293 0 4.387.4 6.28 1.2a12.26 12.26 0 0 1 4.8 3.48l-3.36 3.16c-1.013-1.093-2.147-1.907-3.4-2.44-1.253-.56-2.613-.84-4.08-.84s-2.813.24-4.04.72a9.62 9.62 0 0 0-3.16 2.04 9.697 9.697 0 0 0-2.08 3.12c-.48 1.2-.72 2.52-.72 3.96s.24 2.76.72 3.96c.507 1.2 1.2 2.24 2.08 3.12a9.62 9.62 0 0 0 3.16 2.04c1.227.48 2.573.72 4.04.72s2.827-.267 4.08-.8c1.253-.56 2.387-1.4 3.4-2.52l3.36 3.2c-1.307 1.52-2.907 2.68-4.8 3.48-1.893.8-4 1.2-6.32 1.2Zm9.557-.4 12.6-28h5.12l12.64 28h-5.44l-10.84-25.24h2.08L677.887 48h-5.36Zm5.8-6.48 1.4-4.08h15.12l1.4 4.08h-17.92ZM704.448 48V20h11.52c2.48 0 4.6.4 6.36 1.2 1.786.8 3.16 1.947 4.12 3.44.96 1.493 1.44 3.267 1.44 5.32 0 2.053-.48 3.827-1.44 5.32-.96 1.467-2.334 2.6-4.12 3.4-1.76.773-3.88 1.16-6.36 1.16h-8.64l2.32-2.36V48h-5.2Zm18.32 0-7.08-10.16h5.559L728.368 48h-5.6Zm-13.12-9.96-2.32-2.48h8.4c2.293 0 4.013-.493 5.159-1.48 1.174-.987 1.761-2.36 1.761-4.12 0-1.787-.587-3.16-1.761-4.12-1.146-.96-2.866-1.44-5.159-1.44h-8.4l2.32-2.56v16.2Zm26.857-6.4h13.92v4.28h-13.92v-4.28Zm.4 12h15.8V48h-21V20h20.44v4.36h-15.24v19.28Z"/></g><defs><clipPath id="a"><path fill="#fff" d="M0 0h756v99H0z"/></clipPath></defs></svg>