<svg xmlns="http://www.w3.org/2000/svg" width="565" height="106" fill="none"><g clip-path="url(#a)"><path fill="#fff" d="M128.256 84V67.2h6.912c1.488 0 2.76.24 3.816.72 1.072.48 1.896 1.168 2.472 2.064.576.896.864 1.96.864 3.192 0 1.232-.288 2.296-.864 3.192-.576.88-1.4 1.56-2.472 2.04-1.056.464-2.328.696-3.816.696h-5.184l1.392-1.416V84h-3.12Zm10.992 0L135 77.904h3.336L142.608 84h-3.36Zm-7.872-5.976-1.392-1.488h5.04c1.376 0 2.408-.296 3.096-.888.704-.592 1.056-1.416 1.056-2.472 0-1.072-.352-1.896-1.056-2.472-.688-.576-1.72-.864-3.096-.864h-5.04l1.392-1.536v9.72ZM146.555 84l7.56-16.8h3.072l7.584 16.8h-3.264l-6.504-15.144h1.248L149.771 84h-3.216Zm3.48-3.888.84-2.448h9.072l.84 2.448h-10.752ZM170.027 84V67.2h7.344c1.824 0 3.424.352 4.8 1.056 1.376.704 2.448 1.68 3.216 2.928.768 1.248 1.152 2.72 1.152 4.416 0 1.68-.384 3.152-1.152 4.416-.768 1.248-1.84 2.224-3.216 2.928-1.376.704-2.976 1.056-4.8 1.056h-7.344Zm3.12-2.64h4.08c1.264 0 2.352-.24 3.264-.72.928-.48 1.64-1.152 2.136-2.016.512-.864.768-1.872.768-3.024 0-1.168-.256-2.176-.768-3.024-.496-.864-1.208-1.536-2.136-2.016-.912-.48-2-.72-3.264-.72h-4.08v11.52ZM192.975 84V67.2h3.12V84h-3.12Zm8.408 0 7.56-16.8h3.072l7.584 16.8h-3.264l-6.504-15.144h1.248L204.599 84h-3.216Zm3.48-3.888.84-2.448h9.072l.84 2.448h-10.752ZM227.42 84V69.84h-5.568V67.2h14.256v2.64h-5.568V84h-3.12Zm14.15 0V67.2h3.12V84h-3.12Zm18.656.24c-1.312 0-2.52-.216-3.624-.648a8.867 8.867 0 0 1-2.88-1.8 8.323 8.323 0 0 1-1.896-2.736c-.448-1.056-.672-2.208-.672-3.456 0-1.248.224-2.392.672-3.432a8.004 8.004 0 0 1 1.896-2.736 8.664 8.664 0 0 1 2.88-1.824c1.104-.432 2.304-.648 3.6-.648 1.312 0 2.512.216 3.6.648a8.664 8.664 0 0 1 2.88 1.824 8.004 8.004 0 0 1 1.896 2.736c.448 1.04.672 2.184.672 3.432 0 1.248-.224 2.4-.672 3.456a8.004 8.004 0 0 1-1.896 2.736 8.867 8.867 0 0 1-2.88 1.8c-1.088.432-2.28.648-3.576.648Zm-.024-2.736c.848 0 1.632-.144 2.352-.432a5.507 5.507 0 0 0 1.872-1.224 5.835 5.835 0 0 0 1.224-1.872c.304-.72.456-1.512.456-2.376 0-.864-.152-1.648-.456-2.352a5.507 5.507 0 0 0-1.224-1.872 5.34 5.34 0 0 0-1.872-1.248 6.276 6.276 0 0 0-2.352-.432c-.848 0-1.632.144-2.352.432a5.648 5.648 0 0 0-1.872 1.248 5.815 5.815 0 0 0-1.248 1.872c-.288.704-.432 1.488-.432 2.352 0 .848.144 1.632.432 2.352.304.72.72 1.352 1.248 1.896a5.507 5.507 0 0 0 1.872 1.224c.72.288 1.504.432 2.352.432ZM275.677 84V67.2h2.568l10.536 12.936h-1.272V67.2h3.096V84h-2.568l-10.536-12.936h1.272V84h-3.096Zm40.174.24c-1.312 0-2.52-.216-3.624-.648a8.867 8.867 0 0 1-2.88-1.8 8.323 8.323 0 0 1-1.896-2.736c-.448-1.056-.672-2.208-.672-3.456 0-1.248.224-2.392.672-3.432a8.004 8.004 0 0 1 1.896-2.736 8.664 8.664 0 0 1 2.88-1.824c1.104-.432 2.304-.648 3.6-.648 1.312 0 2.512.216 3.6.648a8.664 8.664 0 0 1 2.88 1.824 8.004 8.004 0 0 1 1.896 2.736c.448 1.04.672 2.184.672 3.432 0 1.248-.224 2.4-.672 3.456a8.004 8.004 0 0 1-1.896 2.736 8.867 8.867 0 0 1-2.88 1.8c-1.088.432-2.28.648-3.576.648Zm-.024-2.736c.848 0 1.632-.144 2.352-.432a5.507 5.507 0 0 0 1.872-1.224 5.835 5.835 0 0 0 1.224-1.872c.304-.72.456-1.512.456-2.376 0-.864-.152-1.648-.456-2.352a5.507 5.507 0 0 0-1.224-1.872 5.34 5.34 0 0 0-1.872-1.248 6.276 6.276 0 0 0-2.352-.432c-.848 0-1.632.144-2.352.432a5.648 5.648 0 0 0-1.872 1.248 5.815 5.815 0 0 0-1.248 1.872c-.288.704-.432 1.488-.432 2.352 0 .848.144 1.632.432 2.352.304.72.72 1.352 1.248 1.896a5.507 5.507 0 0 0 1.872 1.224c.72.288 1.504.432 2.352.432ZM331.303 84V67.2h2.568l10.536 12.936h-1.272V67.2h3.096V84h-2.568l-10.536-12.936h1.272V84h-3.096Zm30.325.24c-1.28 0-2.472-.208-3.576-.624a8.929 8.929 0 0 1-2.856-1.8 8.433 8.433 0 0 1-1.872-2.76c-.448-1.056-.672-2.208-.672-3.456 0-1.248.224-2.4.672-3.456a8.004 8.004 0 0 1 1.896-2.736 8.41 8.41 0 0 1 2.856-1.8c1.088-.432 2.28-.648 3.576-.648 1.376 0 2.632.24 3.768.72a7.353 7.353 0 0 1 2.88 2.088l-2.016 1.896c-.608-.656-1.288-1.144-2.04-1.464a5.932 5.932 0 0 0-2.448-.504c-.88 0-1.688.144-2.424.432a5.77 5.77 0 0 0-1.896 1.224 5.815 5.815 0 0 0-1.248 1.872c-.288.72-.432 1.512-.432 2.376 0 .864.144 1.656.432 2.376.304.72.72 1.344 1.248 1.872a5.77 5.77 0 0 0 1.896 1.224c.736.288 1.544.432 2.424.432.88 0 1.696-.16 2.448-.48.752-.336 1.432-.84 2.04-1.512l2.016 1.92a7.685 7.685 0 0 1-2.88 2.088c-1.136.48-2.4.72-3.792.72Zm20.302 0c-1.312 0-2.52-.216-3.624-.648a8.867 8.867 0 0 1-2.88-1.8 8.323 8.323 0 0 1-1.896-2.736c-.448-1.056-.672-2.208-.672-3.456 0-1.248.224-2.392.672-3.432a8.004 8.004 0 0 1 1.896-2.736 8.664 8.664 0 0 1 2.88-1.824c1.104-.432 2.304-.648 3.6-.648 1.312 0 2.512.216 3.6.648a8.664 8.664 0 0 1 2.88 1.824 8.004 8.004 0 0 1 1.896 2.736c.448 1.04.672 2.184.672 3.432 0 1.248-.224 2.4-.672 3.456a8.004 8.004 0 0 1-1.896 2.736 8.867 8.867 0 0 1-2.88 1.8c-1.088.432-2.28.648-3.576.648Zm-.024-2.736c.848 0 1.632-.144 2.352-.432a5.507 5.507 0 0 0 1.872-1.224 5.835 5.835 0 0 0 1.224-1.872c.304-.72.456-1.512.456-2.376 0-.864-.152-1.648-.456-2.352a5.507 5.507 0 0 0-1.224-1.872 5.34 5.34 0 0 0-1.872-1.248 6.276 6.276 0 0 0-2.352-.432c-.848 0-1.632.144-2.352.432a5.648 5.648 0 0 0-1.872 1.248 5.815 5.815 0 0 0-1.248 1.872c-.288.704-.432 1.488-.432 2.352 0 .848.144 1.632.432 2.352.304.72.72 1.352 1.248 1.896a5.507 5.507 0 0 0 1.872 1.224c.72.288 1.504.432 2.352.432ZM397.381 84V67.2h3.12v14.16h8.784V84h-11.904Zm25.055.24c-1.312 0-2.52-.216-3.624-.648a8.867 8.867 0 0 1-2.88-1.8 8.323 8.323 0 0 1-1.896-2.736c-.448-1.056-.672-2.208-.672-3.456 0-1.248.224-2.392.672-3.432a8.004 8.004 0 0 1 1.896-2.736 8.664 8.664 0 0 1 2.88-1.824c1.104-.432 2.304-.648 3.6-.648 1.312 0 2.512.216 3.6.648a8.664 8.664 0 0 1 2.88 1.824 8.004 8.004 0 0 1 1.896 2.736c.448 1.04.672 2.184.672 3.432 0 1.248-.224 2.4-.672 3.456a8.004 8.004 0 0 1-1.896 2.736 8.867 8.867 0 0 1-2.88 1.8c-1.088.432-2.28.648-3.576.648Zm-.024-2.736c.848 0 1.632-.144 2.352-.432a5.507 5.507 0 0 0 1.872-1.224 5.835 5.835 0 0 0 1.224-1.872c.304-.72.456-1.512.456-2.376 0-.864-.152-1.648-.456-2.352a5.507 5.507 0 0 0-1.224-1.872 5.34 5.34 0 0 0-1.872-1.248 6.276 6.276 0 0 0-2.352-.432c-.848 0-1.632.144-2.352.432a5.648 5.648 0 0 0-1.872 1.248 5.815 5.815 0 0 0-1.248 1.872c-.288.704-.432 1.488-.432 2.352 0 .848.144 1.632.432 2.352.304.72.72 1.352 1.248 1.896a5.507 5.507 0 0 0 1.872 1.224c.72.288 1.504.432 2.352.432Zm23.323 2.736c-1.312 0-2.52-.208-3.624-.624a8.929 8.929 0 0 1-2.856-1.8 8.258 8.258 0 0 1-1.896-2.76c-.448-1.056-.672-2.208-.672-3.456 0-1.248.224-2.4.672-3.456a8.004 8.004 0 0 1 1.896-2.736 8.616 8.616 0 0 1 2.904-1.8c1.104-.432 2.312-.648 3.624-.648 1.424 0 2.704.232 3.84.696a7.535 7.535 0 0 1 2.904 2.04l-1.968 1.92c-.656-.656-1.368-1.136-2.136-1.44-.752-.32-1.584-.48-2.496-.48-.88 0-1.696.144-2.448.432-.752.288-1.4.696-1.944 1.224a5.63 5.63 0 0 0-1.272 1.872c-.288.72-.432 1.512-.432 2.376 0 .848.144 1.632.432 2.352a5.9 5.9 0 0 0 1.272 1.896 5.712 5.712 0 0 0 1.92 1.224c.736.288 1.552.432 2.448.432a7.54 7.54 0 0 0 2.4-.384c.784-.272 1.528-.72 2.232-1.344l1.776 2.328c-.88.704-1.904 1.24-3.072 1.608-1.152.352-2.32.528-3.504.528Zm3.624-2.544v-6.288h2.952v6.696l-2.952-.408ZM463.674 84v-6.648l.696 1.92-7.296-12.072h3.336l5.856 9.72h-1.872l5.904-9.72h3.072l-7.296 12.072.72-1.92V84h-3.12Zm32.388.24c-1.28 0-2.472-.208-3.576-.624a8.929 8.929 0 0 1-2.856-1.8 8.433 8.433 0 0 1-1.872-2.76c-.448-1.056-.672-2.208-.672-3.456 0-1.248.224-2.4.672-3.456a8.004 8.004 0 0 1 1.896-2.736 8.41 8.41 0 0 1 2.856-1.8c1.088-.432 2.28-.648 3.576-.648 1.376 0 2.632.24 3.768.72a7.353 7.353 0 0 1 2.88 2.088l-2.016 1.896c-.608-.656-1.288-1.144-2.04-1.464a5.932 5.932 0 0 0-2.448-.504c-.88 0-1.688.144-2.424.432a5.77 5.77 0 0 0-1.896 1.224 5.815 5.815 0 0 0-1.248 1.872c-.288.72-.432 1.512-.432 2.376 0 .864.144 1.656.432 2.376.304.72.72 1.344 1.248 1.872a5.77 5.77 0 0 0 1.896 1.224c.736.288 1.544.432 2.424.432.88 0 1.696-.16 2.448-.48.752-.336 1.432-.84 2.04-1.512l2.016 1.92a7.685 7.685 0 0 1-2.88 2.088c-1.136.48-2.4.72-3.792.72Zm10.054-.24 7.56-16.8h3.072l7.584 16.8h-3.264l-6.504-15.144h1.248L509.332 84h-3.216Zm3.48-3.888.84-2.448h9.072l.84 2.448h-10.752ZM529.588 84V67.2h6.912c1.488 0 2.76.24 3.816.72 1.072.48 1.896 1.168 2.472 2.064.576.896.864 1.96.864 3.192 0 1.232-.288 2.296-.864 3.192-.576.88-1.4 1.56-2.472 2.04-1.056.464-2.328.696-3.816.696h-5.184l1.392-1.416V84h-3.12Zm10.992 0-4.248-6.096h3.336L543.94 84h-3.36Zm-7.872-5.976-1.392-1.488h5.04c1.376 0 2.408-.296 3.096-.888.704-.592 1.056-1.416 1.056-2.472 0-1.072-.352-1.896-1.056-2.472-.688-.576-1.72-.864-3.096-.864h-5.04l1.392-1.536v9.72Zm20.435-3.84h8.352v2.568h-8.352v-2.568Zm.24 7.2h9.48V84h-12.6V67.2h12.264v2.616h-9.144v11.568ZM127.924 51V23h4.28l12.24 20.44h-2.24L154.244 23h4.28l.04 28h-4.92l-.04-20.28h1.04l-10.24 17.08h-2.32l-10.4-17.08h1.2V51h-4.96Zm51.003-16.36h13.92v4.28h-13.92v-4.28Zm.4 12h15.8V51h-21V23h20.44v4.36h-15.24v19.28ZM208.924 51V23h11.52c2.48 0 4.6.4 6.36 1.2 1.787.8 3.16 1.947 4.12 3.44.96 1.493 1.44 3.267 1.44 5.32 0 2.053-.48 3.827-1.44 5.32-.96 1.467-2.333 2.6-4.12 3.4-1.76.773-3.88 1.16-6.36 1.16h-8.64l2.32-2.36V51h-5.2Zm18.32 0-7.08-10.16h5.56l7.12 10.16h-5.6Zm-13.12-9.96-2.32-2.48h8.4c2.293 0 4.013-.493 5.16-1.48 1.173-.987 1.76-2.36 1.76-4.12 0-1.787-.587-3.16-1.76-4.12-1.147-.96-2.867-1.44-5.16-1.44h-8.4l2.32-2.56v16.2ZM246.182 51V23h5.2v28h-5.2Zm20.773 0V23h12.24c3.04 0 5.707.587 8 1.76 2.294 1.173 4.08 2.8 5.36 4.88 1.28 2.08 1.92 4.533 1.92 7.36 0 2.8-.64 5.253-1.92 7.36-1.28 2.08-3.066 3.707-5.36 4.88-2.293 1.173-4.96 1.76-8 1.76h-12.24Zm5.2-4.4h6.8c2.107 0 3.92-.4 5.44-1.2 1.547-.8 2.734-1.92 3.56-3.36.854-1.44 1.28-3.12 1.28-5.04 0-1.947-.426-3.627-1.28-5.04-.826-1.44-2.013-2.56-3.56-3.36-1.52-.8-3.333-1.2-5.44-1.2h-6.8v19.2Zm35.847 4.4V23h5.2v28h-5.2Zm16.814 0 12.6-28h5.12l12.64 28h-5.44l-10.84-25.24h2.08L330.176 51h-5.36Zm5.8-6.48 1.4-4.08h15.12l1.4 4.08h-17.92ZM366.737 51V23h4.28l17.56 21.56h-2.12V23h5.16v28h-4.28l-17.56-21.56h2.12V51h-5.16Zm59.437 0V23h11.52c2.48 0 4.6.4 6.36 1.2 1.787.8 3.16 1.947 4.12 3.44.96 1.493 1.44 3.267 1.44 5.32 0 2.053-.48 3.827-1.44 5.32-.96 1.493-2.333 2.64-4.12 3.44-1.76.8-3.88 1.2-6.36 1.2h-8.64l2.32-2.44V51h-5.2Zm5.2-9.96-2.32-2.52h8.4c2.293 0 4.013-.48 5.16-1.44 1.173-.987 1.76-2.36 1.76-4.12 0-1.787-.587-3.16-1.76-4.12-1.147-.96-2.867-1.44-5.16-1.44h-8.4l2.32-2.56v16.2ZM457.441 51l12.6-28h5.12l12.64 28h-5.44l-10.84-25.24h2.08L462.801 51h-5.36Zm5.8-6.48 1.4-4.08h15.12l1.4 4.08h-17.92ZM499.362 51V23h11.52c2.48 0 4.6.4 6.36 1.2 1.786.8 3.16 1.947 4.12 3.44.96 1.493 1.44 3.267 1.44 5.32 0 2.053-.48 3.827-1.44 5.32-.96 1.467-2.334 2.6-4.12 3.4-1.76.773-3.88 1.16-6.36 1.16h-8.64l2.32-2.36V51h-5.2Zm18.32 0-7.08-10.16h5.56l7.12 10.16h-5.6Zm-13.12-9.96-2.32-2.48h8.4c2.293 0 4.013-.493 5.16-1.48 1.173-.987 1.76-2.36 1.76-4.12 0-1.787-.587-3.16-1.76-4.12-1.147-.96-2.867-1.44-5.16-1.44h-8.4l2.32-2.56v16.2Zm36.697 3.36-.28-6.16L555.659 23h5.84l-12.2 12.96-2.88 3.16-5.16 5.28Zm-4.64 6.6V23h5.2v28h-5.2Zm19.52 0-10.72-12.76 3.44-3.8L562.219 51h-6.08Z"/><path fill="#013334" stroke="#fff" stroke-width="5" d="M93.5 52.45c0 22.72-20.162 41.5-45.5 41.5S2.5 75.17 2.5 52.45s20.162-41.5 45.5-41.5 45.5 18.78 45.5 41.5Z"/><mask id="b" fill="#fff"><path fill-rule="evenodd" d="M49.12 44.335c23.355.54 42.112 18.515 42.12 40.612-23.356-.54-42.113-18.514-42.12-40.612Z" clip-rule="evenodd"/></mask><path fill="#013334" fill-rule="evenodd" d="M49.12 44.335c23.355.54 42.112 18.515 42.12 40.612-23.356-.54-42.113-18.514-42.12-40.612Z" clip-rule="evenodd"/><path fill="#fff" d="m49.12 44.335.116-4.998-5.117-.119.001 5.119 5-.002Zm42.12 40.612-.116 4.999 5.117.118-.002-5.119-5 .002ZM49.004 49.334c20.929.483 37.228 16.513 37.234 35.614l10-.003c-.008-25.093-21.223-45.013-47.003-45.608l-.231 9.997Zm42.35 30.614c-20.93-.483-37.229-16.513-37.235-35.614l-10 .003c.008 25.093 21.223 45.013 47.004 45.609l.23-9.998Z" mask="url(#b)"/><mask id="c" fill="#fff"><path fill-rule="evenodd" d="M4.84 84.96c0-22.444 19.341-40.637 43.2-40.637 0 22.443-19.341 40.636-43.2 40.636Z" clip-rule="evenodd"/></mask><path fill="#013334" fill-rule="evenodd" d="M4.84 84.96c0-22.444 19.341-40.637 43.2-40.637 0 22.443-19.341 40.636-43.2 40.636Z" clip-rule="evenodd"/><path fill="#fff" d="M4.84 84.96h-5v5h5v-5Zm43.2-40.637h5v-5h-5v5ZM9.84 84.959c0-19.398 16.81-35.636 38.2-35.636v-10c-26.328 0-48.2 20.148-48.2 45.636h10Zm33.2-40.636c0 19.397-16.81 35.636-38.2 35.636v10c26.328 0 48.2-20.148 48.2-45.636h-10Z" mask="url(#c)"/><mask id="d" fill="#fff"><path fill-rule="evenodd" d="M48.58 44c-11.298 6.148-18.9 17.639-18.9 30.8 0 13.161 7.602 24.652 18.9 30.8 11.299-6.148 18.9-17.639 18.9-30.8 0-13.161-7.601-24.652-18.9-30.8Z" clip-rule="evenodd"/></mask><path fill="#013334" fill-rule="evenodd" d="M48.58 44c-11.298 6.148-18.9 17.639-18.9 30.8 0 13.161 7.602 24.652 18.9 30.8 11.299-6.148 18.9-17.639 18.9-30.8 0-13.161-7.601-24.652-18.9-30.8Z" clip-rule="evenodd"/><path fill="#fff" d="m48.58 44 2.39-4.392-2.39-1.3-2.39 1.3L48.58 44Zm0 61.6-2.39 4.392 2.39 1.3 2.39-1.3-2.39-4.392Zm-13.9-30.8c0-11.15 6.437-21.046 16.29-26.408l-4.78-8.784C33.447 46.542 24.68 59.628 24.68 74.8h10Zm16.29 26.408C41.117 95.847 34.68 85.951 34.68 74.8h-10c0 15.172 8.767 28.258 21.51 35.192l4.78-8.784ZM62.48 74.8c0 11.15-6.436 21.047-16.29 26.408l4.78 8.784c12.744-6.934 21.51-20.02 21.51-35.192h-10ZM46.19 48.392C56.044 53.753 62.48 63.65 62.48 74.8h10c0-15.172-8.766-28.258-21.51-35.192l-4.78 8.784Z" mask="url(#d)"/><mask id="e" fill="#fff"><path fill-rule="evenodd" d="M47.452 61.587C23.802 61.051 4.807 43.184 4.8 21.22c23.65.536 42.645 18.404 42.652 40.368Z" clip-rule="evenodd"/></mask><path fill="#013334" fill-rule="evenodd" d="M47.452 61.587C23.802 61.051 4.807 43.184 4.8 21.22c23.65.536 42.645 18.404 42.652 40.368Z" clip-rule="evenodd"/><path fill="#fff" d="m47.452 61.587-.113 5 5.115.115-.002-5.116-5 .001ZM4.8 21.22l.113-4.998-5.115-.116.002 5.116 5-.002Zm42.765 35.37C26.255 56.106 9.806 40.104 9.8 21.218l-10 .003c.008 25.043 21.549 44.776 47.539 45.365l.226-9.997ZM4.686 26.218c21.311.483 37.76 16.485 37.766 35.371l10-.003C52.444 36.542 30.902 16.81 4.913 16.22l-.227 9.997Z" mask="url(#e)"/><mask id="f" fill="#fff"><path fill-rule="evenodd" d="M91.2 21.207C91.2 43.515 71.612 61.6 47.452 61.6c0-22.309 19.585-40.393 43.746-40.393Z" clip-rule="evenodd"/></mask><path fill="#013334" fill-rule="evenodd" d="M91.2 21.207C91.2 43.515 71.612 61.6 47.452 61.6c0-22.309 19.585-40.393 43.746-40.393Z" clip-rule="evenodd"/><path fill="#fff" d="M91.2 21.207h5v-5h-5v5ZM47.451 61.6h-5v5h5v-5ZM86.2 21.207C86.2 40.386 69.235 56.6 47.453 56.6v10c26.539 0 48.746-19.955 48.746-45.393h-10ZM47.453 56.6v10-10Zm5 5c0-19.18 16.964-35.393 38.746-35.393v-10c-26.54 0-48.747 19.955-48.747 45.393h10Zm38.746-35.393v-10 10Z" mask="url(#f)"/><mask id="g" fill="#fff"><path fill-rule="evenodd" d="M47.455 61.232c11.442-6.111 19.14-17.534 19.14-30.616 0-13.083-7.698-24.505-19.14-30.616-11.442 6.111-19.14 17.533-19.14 30.616 0 13.082 7.698 24.505 19.14 30.616Z" clip-rule="evenodd"/></mask><path fill="#013334" fill-rule="evenodd" d="M47.455 61.232c11.442-6.111 19.14-17.534 19.14-30.616 0-13.083-7.698-24.505-19.14-30.616-11.442 6.111-19.14 17.533-19.14 30.616 0 13.082 7.698 24.505 19.14 30.616Z" clip-rule="evenodd"/><path fill="#fff" d="m47.455 61.232-2.356 4.41 2.356 1.258 2.356-1.258-2.356-4.41Zm0-61.232 2.356-4.41-2.356-1.258-2.356 1.258L47.455 0Zm14.14 30.616c0 11.024-6.485 20.858-16.496 26.205l4.712 8.821c12.872-6.875 21.784-19.885 21.784-35.026h-10ZM45.099 4.41C55.11 9.757 61.595 19.592 61.595 30.616h10c0-15.141-8.912-28.151-21.784-35.026l-4.712 8.82ZM33.315 30.616c0-11.024 6.485-20.859 16.496-26.206l-4.712-8.82C32.227 2.465 23.315 15.475 23.315 30.616h10ZM49.811 56.82C39.8 51.475 33.315 41.64 33.315 30.616h-10c0 15.14 8.912 28.15 21.784 35.026l4.712-8.82Z" mask="url(#g)"/></g><defs><clipPath id="a"><path fill="#fff" d="M0 0h565v106H0z"/></clipPath></defs></svg>