<svg xmlns="http://www.w3.org/2000/svg" width="297" height="140" fill="none"><g fill="#D7E0E3" clip-path="url(#a)"><path d="M27.388 140.344c.045.015.182.015.318.015.304 0 .395-1.092.425-1.319.015-.182.06-.198.212-.228.759-.091 1.138-.03 1.896-.015.167 0 .258.076.303.212l.106.349c.091.258.167.576.258.834.061.182.076.167.258.167.243 0 1.122 0 1.38-.015.349 0 .106-.713.06-.834-.136-.425-.166-.865-.302-1.289-.061-.182-1.79-8.387-1.866-8.842-.106-.273-.015-.288-.258-.288-.515 0-1.061.03-1.592 0-.212 0-.197.061-.227.288-.03.212-.577 2.624-.79 3.625-.272 1.258-.515 2.472-.818 3.715-.106.44-.834 3.61-.743 3.625.045.03.121.015.182.015.379 0 .728 0 1.198-.015Zm1.987-3.443h-.319c-.425 0-.44 0-.334-.44a273.1 273.1 0 0 0 .577-2.578c.015-.03.045-.06.06-.06.03 0 .061.03.076.045.06.182.122.637.182.819.137.576.228 1.062.364 1.683.137.546.076.546-.197.546-.136 0-.273-.015-.41-.015Zm15.796 1.911c.015.47.015.94.03 1.411 0 .212.016.242.228.242h1.365c.288 0 .227-.485.212-.743l.046-8.493c0-.227.075-.303.379-.303h1.334c.319 0 .243-.546.243-.925 0-.334.121-.91-.243-.91-.258 0-2.73 0-3.746.015-.5 0-.91-.015-1.41-.015-.38 0-.364.303-.364.971 0 .424-.015.849.349.849.212 0 1.077 0 1.32.015.15 0 .257.046.287.212 0 .046.016.091.016.137 0 1.092-.076 6.172-.046 7.537Zm29.364-9.706c-.152 0-.304.015-.455.015-.228 0-.5-.045-.546.258-.152 1.289-.288 2.715-.44 4.004-.258 2.123-.5 4.307-.743 6.43-.03.288-.06.561.258.622.485.03.849.03 1.258.015.152.015.319.03.364-.152.03-.075.03-.151.03-.227.031-.349.486-4.717.668-4.717.288 0 1.046 3.549 1.41 4.853.046.182.137.258.319.243.379-.03.743 0 1.122 0 .38 0 .303-.243.38-.561.09-.349.97-4.55 1.182-4.55.243 0 .743 4.868.789 4.975.09.212.349.121.53.121.274 0 .531.03.88 0 .258-.03.516.061.531-.273 0-.076-.03-.152-.046-.228-.06-.379-.136-.834-.212-1.213-.106-.788-.258-1.562-.364-2.351a313.558 313.558 0 0 1-.44-3.73c-.106-1.062-.257-2.26-.348-3.322-.03-.348-.425-.227-.668-.227h-1.046c-.167 0-.243.318-.273.485-.091.425-1.138 5.9-1.486 5.9-.35 0-1.471-5.005-1.668-6.097-.046-.243-.213-.318-.44-.318l-.546.045Zm18.071 8.25h-.015c0 .379-.015.774 0 1.168.015.485.045.971.076 1.456 0 .167.045.212.197.243.318.075.622.091.94.091.82-.031 1.638.03 2.457 0 .334-.016.485.015.819-.046.303-.061.41-.227.41-.682-.031-.289-.016-.41-.016-.759 0-.5-.349-.667-.652-.652-.212.015-1.228-.015-1.638-.015-.682.015-.576.106-.576-.607 0-.576.015-1.319.015-1.91 0-.319.03-.425.334-.425h1.895c.304.045.516-.167.516-.485 0-.319.03-.334.03-.653l-.045-.454c-.03-.258-.121-.349-.38-.349-.166 0-.333.015-.5.03-.652.046-.955-.045-1.592 0-.212 0-.243-.03-.258-.227-.06-.592 0-1.244.06-1.835.016-.243.076-.289.304-.304l2.138-.015c.288-.03.38-.015.364-.303-.03-.44.015-.895-.03-1.335-.03-.243-.106-.288-.38-.288-.454.015-.56.015-1.015.045-.455.016-2.275.016-2.715.016-.637 0-.682-.046-.698.728-.03.606-.015 1.228-.015 1.85 0 1.061-.06 4.868-.03 5.717Zm17.283 1.972c0-.395 0-2.882.015-3.079.015-.045.045-.136.106-.136s.091.03.106.075c.607 1.183 1.138 2.366 1.684 3.519.075.167.242.652.288.698.06.091.167.06.258.06l1.668.015c.197 0 .242-.121.197-.288-.121-.455-.986-2.062-1.183-2.457-.136-.303-1.046-2.062-1.077-2.199-.03-.06.197-.166.228-.212.728-.652 1.38-1.319 1.516-2.335.152-1.001-.076-2.093-.728-2.897-.5-.592-1.152-.94-1.926-.986-.47-.03-.925.015-1.395 0-.409-.015-.698-.015-1.213-.015-.243 0-.394.136-.41.394v.182c-.03 1.168 0 2.336.016 3.488 0 1.76-.031 6.4-.031 7.068 0 .197.031.242.213.242.106 0 .227.015.333.015.425 0 .683-.015 1.122-.015.334 0 .213-.546.213-1.137Zm0-5.915.015-1.532c.015-.227-.061-.682.152-.849.288-.212.879 0 1.137.182.758.516.698 1.79.288 2.502-.197.334-.531.531-.91.637-.227.061-.652.137-.667-.227 0-.243-.015-.713-.015-.713Zm16.949 3.139c-.046-1.728-.031-3.563-.015-5.277 0-.531-.031-1.107-.031-1.638 0-.576-.227-.546-.53-.561-.44-.015-.637-.015-1.077-.015-.288-.016-.41.06-.41.348 0 1.487-.045 5.688-.03 6.294.015.607.076 3.367.045 3.974-.015.212 0 .424.016.637.015.075.06.151.182.151.5-.03.97-.03 1.471-.045.182-.015.333-.061.409-.258.015-.106-.03-2.882-.03-3.61Zm16.934 1.123c.091-.197.167-.395.242-.592.167-.485.198-.986.243-1.486.091-1.062.061-2.138-.212-3.17-.334-1.319-1.183-2.532-2.457-3.093-.576-.258-1.229-.289-1.85-.273-.652 0-1.32-.031-1.972.03-.182.015-.273.106-.303.273a3.277 3.277 0 0 0-.061.531c.03.925 0 3.67.03 4.125.016.409-.03.91-.03 1.319.015 1.016 0 2.048 0 3.064 0 .424-.015.834-.015 1.258 0 .455-.167.653 1.077.653 1.107 0 2.259-.091 3.306-.486.97-.349 1.577-1.243 2.002-2.153Zm-4.413-1.578v-1.819c0-1.153.03-1.896-.016-2.867v-.182c.016-.318.061-.333.395-.333.439-.015.758.091 1.137.242.379.152.592.486.789.804.379.622.53 1.304.561 2.017.015.41.03.819.03 1.229 0 1.941-1.137 3.29-2.138 3.29-.667 0-.774.046-.774-.394 0-.455.031-.91.031-1.365-.015-.197-.015-.409-.015-.622Zm17.555.455c-.045-1.728-.03-3.563-.015-5.277 0-.531-.03-1.107-.03-1.638 0-.576-.228-.546-.531-.561-.44-.015-.637-.015-1.077-.015-.288-.016-.409.06-.409.348 0 1.487-.046 5.688-.031 6.294.016.607.076 3.367.046 3.974-.015.212 0 .424.015.637.015.075.061.151.182.151.5-.03.971-.03 1.471-.045.182-.015.334-.061.41-.258.015-.106-.031-2.882-.031-3.61Zm11.945 3.792c.045.015.182.015.318.015.303 0 .394-1.092.425-1.319.015-.182.06-.198.212-.228.758-.091 1.137-.03 1.896-.015.167 0 .258.076.303.212l.106.349c.091.258.167.576.258.834.061.182.076.167.258.167.243 0 1.122 0 1.38-.015.349 0 .106-.713.061-.834-.137-.425-.167-.865-.304-1.289-.06-.182-1.789-8.387-1.865-8.842-.106-.273-.015-.288-.258-.288-.516 0-1.061.03-1.592 0-.213 0-.197.061-.228.288-.03.212-.576 2.624-.788 3.625-.273 1.258-.516 2.472-.819 3.715-.106.44-.834 3.61-.743 3.625.045.03.121.015.182.015.379 0 .728 0 1.198-.015Zm1.986-3.443h-.318c-.425 0-.44 0-.334-.44.076-.333.486-2.138.576-2.578.016-.03.046-.06.061-.06.03 0 .061.03.076.045.061.182.121.637.182.819.136.576.227 1.062.364 1.683.136.546.076.546-.197.546-.137 0-.273-.015-.41-.015Zm20.331-7.461c.046.212.015 10.312.015 10.57 0 .455-.166.44-.47.44-.455 0-1.092.076-1.228-.076-.121-.106-2.366-5.52-2.684-6.203-.031-.06-.107-.212-.167-.182-.076.031-.046.137-.046.198-.015.53.076 5.11.076 5.838 0 .364-.015.425-.318.425h-.759c-.197 0-.439-.015-.637.015-.151 0-.227-.045-.242-.197v-1.198c.03-1.274 0-8.826 0-9.388 0-.485.136-.576.622-.576.333-.015.667-.015 1.001-.015.106 0 .166.015.227.152.409.955 2.153 5.338 2.426 5.869.046.106.213.531.304.576h.015c.061-.061.045-.364.045-.455 0-.227-.121-5.551-.121-5.657 0-.151-.045-.288.03-.394.046-.061.243-.076.319-.091.425-.03.925.015 1.35 0 .212 0 .197.152.242.349Zm23.358 1.638c.016.894.016 8.492.016 9.114 0 .228.03.273.257.273.516 0 .516.015 1.032 0 .106 0 .288 0 .379-.045.106-.046.045-3.625.045-3.822 0-.212.425-.167.546-.167 2.533 0 3.23-1.82 3.23-3.367 0-1.395-.273-3.973-3.427-3.973-.546 0-1.107.015-1.638.015-.121 0-.273-.015-.379.061-.121.091-.076 1.441-.061 1.911Zm1.744 3.124c0-.334-.015-2.321 0-2.927 0-.091-.015-.197 0-.303.046-.167.243-.167.395-.152.879.061 1.38.834 1.456 1.653.06.591-.016 1.471-.44 1.941a1.608 1.608 0 0 1-1.213.516c-.107 0-.213-.122-.213-.228 0-.167 0-.333.015-.5Zm15.676 6.142c.045.015.182.015.318.015.303 0 .394-1.092.425-1.319.015-.182.06-.198.212-.228.758-.091 1.137-.03 1.896-.015.167 0 .258.076.303.212l.106.349c.091.258.167.576.258.834.061.182.076.167.258.167.242 0 1.122 0 1.38-.015.349 0 .106-.713.061-.834-.137-.425-.167-.865-.304-1.289-.06-.182-1.789-8.387-1.865-8.842-.106-.273-.015-.288-.258-.288-.516 0-1.062.03-1.592 0-.213 0-.198.061-.228.288-.03.212-.576 2.624-.788 3.625-.273 1.258-.516 2.472-.819 3.715-.107.44-.835 3.61-.744 3.625.046.03.122.015.182.015.38 0 .728 0 1.199-.015Zm1.986-3.443h-.318c-.425 0-.44 0-.334-.44.076-.333.485-2.138.576-2.578.016-.03.046-.06.061-.06.03 0 .061.03.076.045.061.182.121.637.182.819.136.576.227 1.062.364 1.683.136.546.076.546-.197.546-.137 0-.273-.015-.41-.015Zm15.751 2.427c0-.395 0-2.882.015-3.079.016-.045.046-.136.107-.136.06 0 .091.03.106.075.606 1.183 1.137 2.366 1.683 3.519.076.167.243.652.288.698.061.091.167.06.258.06l1.668.015c.197 0 .243-.121.197-.288-.121-.455-.985-2.062-1.182-2.457-.137-.303-1.047-2.062-1.077-2.199-.031-.06.197-.166.227-.212.728-.652 1.38-1.319 1.517-2.335.151-1.001-.076-2.093-.728-2.897-.501-.592-1.153-.94-1.926-.986-.47-.03-.925.015-1.395 0-.41-.015-.698-.015-1.214-.015-.242 0-.394.136-.409.394v.182c-.03 1.168 0 2.336.015 3.488 0 1.76-.03 6.4-.03 7.068 0 .197.03.242.212.242.106 0 .228.015.334.015.424 0 .682-.015 1.122-.015.334 0 .212-.546.212-1.137Zm0-5.915.015-1.532c.016-.227-.06-.682.152-.849.288-.212.88 0 1.137.182.759.516.698 1.79.289 2.502-.198.334-.531.531-.91.637-.228.061-.652.137-.668-.227 0-.243-.015-.713-.015-.713Zm16.919 4.307c0-.531-.076-1.971-.061-2.275 0-.045.031-.106.046-.106.03 0 .091.031.106.046.485.637 2.76 5.05 3.033 5.065.076.015.152.015.228.015.515-.03.97 0 1.486 0 .531 0 .182-.515.091-.652-.137-.197-1.941-3.427-2.048-3.625-.303-.515-.561-1.076-.864-1.577-.03-.06-.061-.151-.045-.212.03-.182.075-.349.151-.516.364-.712.743-1.44 1.183-2.123.485-.773.758-1.259 1.153-1.956.091-.167.151-.349.212-.546.015-.076-.046-.152-.137-.152-.288-.015-1.334 0-1.668 0-.151 0-.303.03-.379.167-.197.379-2.229 4.095-2.426 4.428-.016.031-.061.046-.107.046 0 0-.03-.046-.03-.076-.015-.849.137-3.625.106-4.186-.015-.333-.076-.364-.409-.379-.364-.015-.865-.015-1.229-.015-.333 0-.364.182-.409.425-.015.045-.015 1.471-.015 2.108 0 .925-.076 6.718.03 8.553 0 .182.046.288.197.288.41-.03 1.016 0 1.426 0 .288 0 .333-.03.333-.515 0-.653.061-1.244.061-2.048 0-.06-.015-.121-.015-.182ZM0 117.529V87.377h6.106c3.882 0 5.2 2.374 5.2 6.935 0 4.108-.489 6.445-1.657 7.575v.227c.98.339 1.281 2.11 1.658 6.52l.754 8.895H8.29l-.49-8.895c-.263-4.485-.941-5.427-2.072-5.427h-1.96v14.322H0Zm3.769-17.338h2.337c1.319 0 1.696-1.319 1.696-5.88 0-2.977-.566-3.919-1.696-3.919H3.769v9.799Zm11.307 17.338v-15.83c0-10.515 0-14.661 5.653-14.661 5.654 0 5.654 4.146 5.654 14.661v15.83h-3.77v-8.669h-3.768v8.669h-3.77Zm3.769-11.684h3.769v-4.146c0-9.8 0-11.646-1.885-11.646-1.884 0-1.884 1.847-1.884 11.646v4.146Zm11.307 11.684V87.377h5.653c5.654 0 5.654 4.146 5.654 14.284 0 11.684 0 15.868-5.654 15.868h-5.653Zm3.769-3.769h1.884c2.11 0 2.11-1.583 2.11-12.099 0-9.422 0-11.269-2.11-11.269h-1.884v23.368Zm10.93 3.769V87.377h3.769v30.152h-3.77Zm7.538 0v-15.83c0-10.515 0-14.661 5.653-14.661 5.654 0 5.654 4.146 5.654 14.661v15.83h-3.77v-8.669h-3.768v8.669h-3.77Zm3.769-11.684h3.769v-4.146c0-9.8 0-11.646-1.885-11.646-1.884 0-1.884 1.847-1.884 11.646v4.146Zm9.799-15.076v-3.392h11.307v3.392h-3.769v26.76h-3.769v-26.76h-3.769Zm13.568 26.76V87.377h3.77v30.152h-3.77Zm7.161-15.868c0-10.515.226-14.661 5.88-14.661 5.653 0 5.88 4.146 5.88 14.661 0 12.061-.227 16.245-5.88 16.245-5.654 0-5.88-4.184-5.88-16.245Zm3.77 0c0 10.893 0 12.476 2.11 12.476s2.11-1.583 2.11-12.476c0-9.799 0-11.646-2.11-11.646s-2.11 1.847-2.11 11.646Zm11.382 15.868V87.377h3.392l4.937 18.468-.038-.377V87.377h3.769v30.152h-3.392l-4.937-16.584.038.377v16.207h-3.769Zm23.744-15.868c0-10.515.226-14.661 5.88-14.661 5.653 0 5.879 4.146 5.879 14.661 0 12.061-.226 16.245-5.879 16.245-5.654 0-5.88-4.184-5.88-16.245Zm3.769 0c0 10.893 0 12.476 2.111 12.476 2.11 0 2.11-1.583 2.11-12.476 0-9.799 0-11.646-2.11-11.646-2.111 0-2.111 1.847-2.111 11.646Zm11.382 15.868V87.377h3.393l4.937 18.468-.038-.377V87.377h3.769v30.152h-3.392l-4.937-16.584.037.377v16.207h-3.769Zm15.453-15.868c0-10.515 0-14.661 5.277-14.661 3.882 0 4.937 2.374 5.201 8.066h-3.505c-.151-4.109-.565-5.05-1.696-5.05-1.734 0-1.734 1.846-1.734 11.645 0 10.893 0 12.476 1.734 12.476 1.244 0 1.62-.943 1.696-5.805h3.543c-.226 6.973-1.169 9.574-5.239 9.574-5.277 0-5.277-4.184-5.277-16.245Zm12.777 0c0-10.515.226-14.661 5.88-14.661 5.653 0 5.879 4.146 5.879 14.661 0 12.061-.226 16.245-5.879 16.245-5.654 0-5.88-4.184-5.88-16.245Zm3.769 0c0 10.893 0 12.476 2.111 12.476 2.11 0 2.11-1.583 2.11-12.476 0-9.799 0-11.646-2.11-11.646-2.111 0-2.111 1.847-2.111 11.646Zm11.382 15.868V87.377h3.769v26.383h4.9v3.769h-8.669Zm10.553-15.868c0-10.515.227-14.661 5.88-14.661 5.654 0 5.88 4.146 5.88 14.661 0 12.061-.226 16.245-5.88 16.245-5.653 0-5.88-4.184-5.88-16.245Zm3.769 0c0 10.893 0 12.476 2.111 12.476s2.111-1.583 2.111-12.476c0-9.799 0-11.646-2.111-11.646s-2.111 1.847-2.111 11.646Zm11.006 0c0-10.515 0-14.661 5.653-14.661 4.297 0 5.315 2.374 5.578 8.066h-3.505c-.151-4.109-.565-5.05-2.073-5.05-2.11 0-2.11 1.846-2.11 11.645 0 10.893 0 12.476 2.11 12.476 1.998 0 2.111-1.433 2.111-9.423h-2.488v-3.015h6.031v1.47c0 10.553 0 14.737-5.654 14.737-5.653 0-5.653-4.184-5.653-16.245Zm12.814-14.284h3.769l2.262 11.608h.377l2.261-11.608h3.769l-4.334 17.036v13.116h-3.769v-13.116l-4.335-17.036Zm22.614 14.284c0-10.515 0-14.661 5.277-14.661 3.882 0 4.937 2.374 5.201 8.066h-3.505c-.151-4.109-.566-5.05-1.696-5.05-1.734 0-1.734 1.846-1.734 11.645 0 10.893 0 12.476 1.734 12.476 1.244 0 1.62-.943 1.696-5.805h3.543c-.226 6.973-1.169 9.574-5.239 9.574-5.277 0-5.277-4.184-5.277-16.245Zm13.154 15.868v-15.83c0-10.515 0-14.661 5.653-14.661 5.654 0 5.654 4.146 5.654 14.661v15.83h-3.769v-8.669h-3.769v8.669h-3.769Zm3.769-11.684h3.769v-4.146c0-9.8 0-11.646-1.885-11.646-1.884 0-1.884 1.847-1.884 11.646v4.146Zm11.307 11.684V87.377h6.106c3.882 0 5.201 2.374 5.201 6.935 0 4.108-.49 6.445-1.659 7.575v.227c.98.339 1.282 2.11 1.659 6.52l.754 8.895h-3.769l-.49-8.895c-.264-4.485-.943-5.427-2.073-5.427h-1.96v14.322H273.1Zm3.769-17.338h2.337c1.319 0 1.696-1.319 1.696-5.88 0-2.977-.566-3.919-1.696-3.919h-2.337v9.799Zm11.307 17.338V87.377h8.668v3.015h-4.899v9.799h4.146v3.016h-4.146v10.553h4.899v3.769h-8.668ZM167.537 31.714a61.832 61.832 0 0 1 8.273-1.923c-.113-4.664-.733-8.517-1.182-10.732a63.575 63.575 0 0 0-8.232 3.772 36.04 36.04 0 0 1 1.084 6.828c.043.688.061 1.373.057 2.055ZM178.431 49.774c2.783-5.622 4.32-11.15 5.063-14.904-10.207.44-32.267-1.872-39.857 28.069-.511 2.014-1.446 4.84-2.205 6.992 2.339-.324 24.966 4.156 36.999-20.157Z"/><path d="M183.059 49.18c-.356.788-.73 1.58-1.134 2.374-4.465 8.772-10.555 14.89-18.183 18.31 21.808 2.524 40.155-10.962 40.155-10.962s-8.561-6.466-20.838-9.722ZM146.387 45.153c4.001-4.814 9.221-8.628 15.636-11.407a50.295 50.295 0 0 1 1.538-.634 27.35 27.35 0 0 0 .006-3.202C162.736 15.714 151.626 3.74 147.783 0c-2.442 2.442-7.853 8.351-11.563 16.102-2.92 6.102-4.199 11.993-3.851 17.646 5.805 2.846 10.487 6.66 14.018 11.405ZM113.151 50.539c-.089-.17-.171-.335-.256-.503-10.832 3.461-10.263 3.097-17.895 8.866 0 0 17.74 13.041 39.064 11.078-8.822-3.322-15.842-9.841-20.913-19.441ZM111.337 34.083c.813 3.685 2.381 9.13 5.281 14.622 5.103 9.661 12.326 15.87 21.488 18.48.212-.586 1.451-10.457 5.963-18.006-7.255-13.157-24.71-14.92-32.732-15.096ZM129.532 23.079a63.143 63.143 0 0 0-8.691-4.022 63.828 63.828 0 0 0-1.173 10.452c2.81.574 5.786 1.386 8.767 2.528a36.527 36.527 0 0 1 1.097-8.958Z"/></g><defs><clipPath id="a"><path fill="#fff" d="M0 0h297v140H0z"/></clipPath></defs></svg>