<svg xmlns="http://www.w3.org/2000/svg" width="573" height="197" fill="none"><g fill="#D7E0E3" clip-path="url(#a)"><path d="M312.224 44.694a87.148 87.148 0 0 1 11.658-2.711c-.159-6.572-1.033-12.003-1.666-15.123-2.607.965-6.819 2.702-11.6 5.315a50.832 50.832 0 0 1 1.528 9.622c.059.97.085 1.935.08 2.897ZM327.575 70.145c3.922-7.924 6.09-15.715 7.137-21.004-14.385.62-45.473-2.638-56.17 39.556-.719 2.839-2.038 6.822-3.107 9.854 3.296-.457 35.183 5.857 52.14-28.406Z"/><path d="M334.098 69.308a80.684 80.684 0 0 1-1.598 3.345c-6.292 12.362-14.874 20.984-25.625 25.802 30.733 3.559 56.589-15.447 56.589-15.447s-12.064-9.112-29.366-13.7ZM282.418 63.633c5.639-6.785 12.995-12.16 22.035-16.076.725-.314 1.448-.61 2.168-.894.087-1.492.097-2.996.008-4.512C305.458 22.145 289.801 5.27 284.385 0c-3.442 3.441-11.068 11.769-16.296 22.692-4.114 8.6-5.917 16.902-5.427 24.868 8.181 4.01 14.78 9.385 19.756 16.073ZM235.579 71.222c-.124-.238-.24-.472-.36-.709-15.266 4.879-14.463 4.365-25.219 12.495 0 0 25.001 18.379 55.051 15.611-12.432-4.68-22.326-13.868-29.472-27.397ZM233.023 48.032c1.146 5.193 3.356 12.866 7.443 20.606 7.191 13.615 17.37 22.366 30.282 26.042.298-.825 2.044-14.736 8.403-25.374-10.224-18.542-34.823-21.026-46.128-21.274ZM258.665 32.524c-5.051-2.817-9.522-4.66-12.248-5.668-.614 3.063-1.466 8.345-1.654 14.73 3.961.81 8.154 1.953 12.355 3.563-.017-4.145.49-8.36 1.547-12.625ZM36.523 192l6.3-14h2.56l6.32 14h-2.72l-5.42-12.62h1.04l-5.4 12.62h-2.68Zm2.9-3.24.7-2.04h7.56l.7 2.04h-8.96ZM75.62 192v-11.8h-4.64V178h11.88v2.2h-4.64V192h-2.6Zm54.719 0v-14h2.14l6.12 10.22h-1.12l6.02-10.22h2.14l.02 14h-2.46l-.02-10.14h.52l-5.12 8.54h-1.16l-5.2-8.54h.6V192h-2.48Zm41.502-8.18h6.96v2.14h-6.96v-2.14Zm.2 6h7.9V192h-10.5v-14h10.22v2.18h-7.62v9.64Zm30.798 2.18v-14h5.76c1.24 0 2.3.2 3.18.6.893.4 1.58.973 2.06 1.72s.72 1.633.72 2.66c0 1.027-.24 1.913-.72 2.66-.48.733-1.167 1.3-2.06 1.7-.88.387-1.94.58-3.18.58h-4.32l1.16-1.18V192h-2.6Zm9.16 0-3.54-5.08h2.78l3.56 5.08h-2.8Zm-6.56-4.98-1.16-1.24h4.2c1.147 0 2.007-.247 2.58-.74.587-.493.88-1.18.88-2.06 0-.893-.293-1.58-.88-2.06-.573-.48-1.433-.72-2.58-.72h-4.2l1.16-1.28v8.1Zm32.029 4.98v-14h2.6v14h-2.6Zm26.387 0v-14h6.12c1.52 0 2.853.293 4 .88 1.146.587 2.04 1.4 2.68 2.44.64 1.04.96 2.267.96 3.68 0 1.4-.32 2.627-.96 3.68-.64 1.04-1.534 1.853-2.68 2.44-1.147.587-2.48.88-4 .88h-6.12Zm2.6-2.2h3.4c1.053 0 1.96-.2 2.72-.6.773-.4 1.366-.96 1.78-1.68.426-.72.64-1.56.64-2.52 0-.973-.214-1.813-.64-2.52a4.257 4.257 0 0 0-1.78-1.68c-.76-.4-1.667-.6-2.72-.6h-3.4v9.6Zm33.923 2.2v-14h2.6v14h-2.6Zm24.407 0 6.3-14h2.56l6.32 14h-2.72l-5.42-12.62h1.04l-5.4 12.62h-2.68Zm2.9-3.24.7-2.04h7.56l.7 2.04h-8.96Zm34.06 3.24v-14h2.14l8.78 10.78h-1.06V178h2.58v14h-2.14l-8.78-10.78h1.06V192h-2.58Zm61.719 0v-14h5.76c1.24 0 2.3.2 3.18.6.893.4 1.58.973 2.06 1.72s.72 1.633.72 2.66c0 1.027-.24 1.913-.72 2.66-.48.747-1.167 1.32-2.06 1.72-.88.4-1.94.6-3.18.6h-4.32l1.16-1.22V192h-2.6Zm2.6-4.98-1.16-1.26h4.2c1.147 0 2.007-.24 2.58-.72.587-.493.88-1.18.88-2.06 0-.893-.293-1.58-.88-2.06-.573-.48-1.433-.72-2.58-.72h-4.2l1.16-1.28v8.1Zm29.033 4.98 6.3-14h2.56l6.32 14h-2.72l-5.42-12.62h1.04l-5.4 12.62h-2.68Zm2.9-3.24.7-2.04h7.56l.7 2.04h-8.96Zm34.061 3.24v-14h5.76c1.24 0 2.3.2 3.18.6.893.4 1.58.973 2.06 1.72s.72 1.633.72 2.66c0 1.027-.24 1.913-.72 2.66-.48.733-1.167 1.3-2.06 1.7-.88.387-1.94.58-3.18.58h-4.32l1.16-1.18V192h-2.6Zm9.16 0-3.54-5.08h2.78l3.56 5.08h-2.8Zm-6.56-4.98-1.16-1.24h4.2c1.146 0 2.006-.247 2.58-.74.586-.493.88-1.18.88-2.06 0-.893-.294-1.58-.88-2.06-.574-.48-1.434-.72-2.58-.72h-4.2l1.16-1.28v8.1Zm34.349 1.68-.14-3.08 7.34-7.62h2.92l-6.1 6.48-1.44 1.58-2.58 2.64Zm-2.32 3.3v-14h2.6v14h-2.6Zm9.76 0-5.36-6.38 1.72-1.9 6.68 8.28h-3.04ZM3.76 158v-28h11.52c2.48 0 4.6.4 6.36 1.2 1.787.8 3.16 1.947 4.12 3.44.96 1.493 1.44 3.267 1.44 5.32 0 2.053-.48 3.827-1.44 5.32-.96 1.467-2.333 2.6-4.12 3.4-1.76.773-3.88 1.16-6.36 1.16H6.64l2.32-2.36V158h-5.2Zm18.32 0L15 147.84h5.56L27.68 158h-5.6Zm-13.12-9.96-2.32-2.48h8.4c2.293 0 4.013-.493 5.16-1.48 1.173-.987 1.76-2.36 1.76-4.12 0-1.787-.587-3.16-1.76-4.12-1.147-.96-2.867-1.44-5.16-1.44h-8.4l2.32-2.56v16.2ZM27.058 158l12.6-28h5.12l12.64 28h-5.44l-10.84-25.24h2.08L32.418 158h-5.36Zm5.8-6.48 1.4-4.08h15.12l1.4 4.08h-17.92Zm26.12 6.48v-28h12.24c3.04 0 5.707.587 8 1.76 2.294 1.173 4.08 2.8 5.36 4.88 1.28 2.08 1.92 4.533 1.92 7.36 0 2.8-.64 5.253-1.92 7.36-1.28 2.08-3.066 3.707-5.36 4.88-2.293 1.173-4.96 1.76-8 1.76h-12.24Zm5.2-4.4h6.8c2.107 0 3.92-.4 5.44-1.2 1.547-.8 2.734-1.92 3.56-3.36.854-1.44 1.28-3.12 1.28-5.04 0-1.947-.426-3.627-1.28-5.04-.826-1.44-2.013-2.56-3.56-3.36-1.52-.8-3.333-1.2-5.44-1.2h-6.8v19.2Zm25.848 4.4v-28h5.2v28h-5.2Zm6.813 0 12.6-28h5.12l12.64 28h-5.44l-10.84-25.24h2.08l-10.8 25.24h-5.36Zm5.8-6.48 1.4-4.08h15.12l1.4 4.08h-17.92Zm30.395 6.48v-23.6h-9.28V130h23.76v4.4h-9.28V158h-5.2Zm16.382 0v-28h5.2v28h-5.2Zm23.894.4c-2.187 0-4.2-.36-6.04-1.08-1.84-.72-3.44-1.72-4.8-3a13.869 13.869 0 0 1-3.16-4.56c-.747-1.76-1.12-3.68-1.12-5.76 0-2.08.373-3.987 1.12-5.72.746-1.76 1.8-3.28 3.16-4.56 1.36-1.307 2.96-2.32 4.8-3.04 1.84-.72 3.84-1.08 6-1.08 2.186 0 4.186.36 6 1.08 1.84.72 3.44 1.733 4.8 3.04 1.36 1.28 2.413 2.8 3.16 4.56.746 1.733 1.12 3.64 1.12 5.72 0 2.08-.374 4-1.12 5.76-.747 1.76-1.8 3.28-3.16 4.56-1.36 1.28-2.96 2.28-4.8 3-1.814.72-3.8 1.08-5.96 1.08Zm-.04-4.56c1.413 0 2.72-.24 3.92-.72 1.2-.48 2.24-1.16 3.12-2.04a9.733 9.733 0 0 0 2.04-3.12c.506-1.2.76-2.52.76-3.96s-.254-2.747-.76-3.92a9.179 9.179 0 0 0-2.04-3.12 8.897 8.897 0 0 0-3.12-2.08c-1.2-.48-2.507-.72-3.92-.72-1.414 0-2.72.24-3.92.72a9.395 9.395 0 0 0-3.12 2.08 9.681 9.681 0 0 0-2.08 3.12c-.48 1.173-.72 2.48-.72 3.92 0 1.413.24 2.72.72 3.92.506 1.2 1.2 2.253 2.08 3.16.88.88 1.92 1.56 3.12 2.04 1.2.48 2.506.72 3.92.72Zm18.592 4.16v-28h4.28l17.56 21.56h-2.12V130h5.16v28h-4.28l-17.56-21.56h2.12V158h-5.16Zm52.557.4c-2.187 0-4.2-.36-6.04-1.08-1.84-.72-3.44-1.72-4.8-3a13.884 13.884 0 0 1-3.16-4.56c-.747-1.76-1.12-3.68-1.12-5.76 0-2.08.373-3.987 1.12-5.72.747-1.76 1.8-3.28 3.16-4.56 1.36-1.307 2.96-2.32 4.8-3.04 1.84-.72 3.84-1.08 6-1.08 2.187 0 4.187.36 6 1.08 1.84.72 3.44 1.733 4.8 3.04 1.36 1.28 2.413 2.8 3.16 4.56.747 1.733 1.12 3.64 1.12 5.72 0 2.08-.373 4-1.12 5.76-.747 1.76-1.8 3.28-3.16 4.56-1.36 1.28-2.96 2.28-4.8 3-1.813.72-3.8 1.08-5.96 1.08Zm-.04-4.56c1.413 0 2.72-.24 3.92-.72 1.2-.48 2.24-1.16 3.12-2.04a9.733 9.733 0 0 0 2.04-3.12c.507-1.2.76-2.52.76-3.96s-.253-2.747-.76-3.92a9.179 9.179 0 0 0-2.04-3.12 8.897 8.897 0 0 0-3.12-2.08c-1.2-.48-2.507-.72-3.92-.72-1.413 0-2.72.24-3.92.72a9.415 9.415 0 0 0-3.12 2.08 9.697 9.697 0 0 0-2.08 3.12c-.48 1.173-.72 2.48-.72 3.92 0 1.413.24 2.72.72 3.92.507 1.2 1.2 2.253 2.08 3.16.88.88 1.92 1.56 3.12 2.04 1.2.48 2.507.72 3.92.72Zm18.592 4.16v-28h4.28l17.56 21.56h-2.12V130h5.16v28h-4.28l-17.56-21.56h2.12V158h-5.16Zm43.343.4c-2.134 0-4.12-.347-5.96-1.04-1.814-.72-3.4-1.72-4.76-3a14.038 14.038 0 0 1-3.12-4.6c-.747-1.76-1.12-3.68-1.12-5.76 0-2.08.373-4 1.12-5.76.746-1.76 1.8-3.28 3.16-4.56a14 14 0 0 1 4.76-3c1.813-.72 3.8-1.08 5.96-1.08 2.293 0 4.386.4 6.28 1.2a12.254 12.254 0 0 1 4.8 3.48l-3.36 3.16c-1.014-1.093-2.147-1.907-3.4-2.44-1.254-.56-2.614-.84-4.08-.84-1.467 0-2.814.24-4.04.72a9.61 9.61 0 0 0-3.16 2.04 9.681 9.681 0 0 0-2.08 3.12c-.48 1.2-.72 2.52-.72 3.96s.24 2.76.72 3.96c.506 1.2 1.2 2.24 2.08 3.12a9.61 9.61 0 0 0 3.16 2.04c1.226.48 2.573.72 4.04.72 1.466 0 2.826-.267 4.08-.8 1.253-.56 2.386-1.4 3.4-2.52l3.36 3.2c-1.307 1.52-2.907 2.68-4.8 3.48-1.894.8-4 1.2-6.32 1.2Zm26.636 0c-2.186 0-4.2-.36-6.04-1.08-1.84-.72-3.44-1.72-4.8-3a13.884 13.884 0 0 1-3.16-4.56c-.746-1.76-1.12-3.68-1.12-5.76 0-2.08.374-3.987 1.12-5.72.747-1.76 1.8-3.28 3.16-4.56 1.36-1.307 2.96-2.32 4.8-3.04 1.84-.72 3.84-1.08 6-1.08 2.187 0 4.187.36 6 1.08 1.84.72 3.44 1.733 4.8 3.04 1.36 1.28 2.414 2.8 3.16 4.56.747 1.733 1.12 3.64 1.12 5.72 0 2.08-.373 4-1.12 5.76-.746 1.76-1.8 3.28-3.16 4.56-1.36 1.28-2.96 2.28-4.8 3-1.813.72-3.8 1.08-5.96 1.08Zm-.04-4.56c1.414 0 2.72-.24 3.92-.72 1.2-.48 2.24-1.16 3.12-2.04a9.733 9.733 0 0 0 2.04-3.12c.507-1.2.76-2.52.76-3.96s-.253-2.747-.76-3.92a9.179 9.179 0 0 0-2.04-3.12 8.897 8.897 0 0 0-3.12-2.08c-1.2-.48-2.506-.72-3.92-.72-1.413 0-2.72.24-3.92.72a9.415 9.415 0 0 0-3.12 2.08 9.697 9.697 0 0 0-2.08 3.12c-.48 1.173-.72 2.48-.72 3.92 0 1.413.24 2.72.72 3.92.507 1.2 1.2 2.253 2.08 3.16.88.88 1.92 1.56 3.12 2.04 1.2.48 2.507.72 3.92.72Zm18.592 4.16v-28h5.2v23.6h14.64v4.4h-19.84Zm34.558.4c-2.187 0-4.2-.36-6.04-1.08-1.84-.72-3.44-1.72-4.8-3a13.869 13.869 0 0 1-3.16-4.56c-.747-1.76-1.12-3.68-1.12-5.76 0-2.08.373-3.987 1.12-5.72.746-1.76 1.8-3.28 3.16-4.56 1.36-1.307 2.96-2.32 4.8-3.04 1.84-.72 3.84-1.08 6-1.08 2.186 0 4.186.36 6 1.08 1.84.72 3.44 1.733 4.8 3.04 1.36 1.28 2.413 2.8 3.16 4.56.746 1.733 1.12 3.64 1.12 5.72 0 2.08-.374 4-1.12 5.76-.747 1.76-1.8 3.28-3.16 4.56-1.36 1.28-2.96 2.28-4.8 3-1.814.72-3.8 1.08-5.96 1.08Zm-.04-4.56c1.413 0 2.72-.24 3.92-.72 1.2-.48 2.24-1.16 3.12-2.04a9.733 9.733 0 0 0 2.04-3.12c.506-1.2.76-2.52.76-3.96s-.254-2.747-.76-3.92a9.179 9.179 0 0 0-2.04-3.12 8.897 8.897 0 0 0-3.12-2.08c-1.2-.48-2.507-.72-3.92-.72-1.414 0-2.72.24-3.92.72a9.395 9.395 0 0 0-3.12 2.08 9.681 9.681 0 0 0-2.08 3.12c-.48 1.173-.72 2.48-.72 3.92 0 1.413.24 2.72.72 3.92.506 1.2 1.2 2.253 2.08 3.16.88.88 1.92 1.56 3.12 2.04 1.2.48 2.506.72 3.92.72Zm31.672 4.56c-2.187 0-4.2-.347-6.04-1.04-1.814-.72-3.4-1.72-4.76-3a13.757 13.757 0 0 1-3.16-4.6c-.747-1.76-1.12-3.68-1.12-5.76 0-2.08.373-4 1.12-5.76.746-1.76 1.8-3.28 3.16-4.56 1.386-1.307 3-2.307 4.84-3 1.84-.72 3.853-1.08 6.04-1.08 2.373 0 4.506.387 6.4 1.16 1.92.773 3.533 1.907 4.84 3.4l-3.28 3.2c-1.094-1.093-2.28-1.893-3.56-2.4-1.254-.533-2.64-.8-4.16-.8-1.467 0-2.827.24-4.08.72-1.254.48-2.334 1.16-3.24 2.04a9.368 9.368 0 0 0-2.12 3.12c-.48 1.2-.72 2.52-.72 3.96 0 1.413.24 2.72.72 3.92a9.82 9.82 0 0 0 2.12 3.16 9.51 9.51 0 0 0 3.2 2.04c1.226.48 2.586.72 4.08.72 1.386 0 2.72-.213 4-.64 1.306-.453 2.546-1.2 3.72-2.24l2.96 3.88c-1.467 1.173-3.174 2.067-5.12 2.68-1.92.587-3.867.88-5.84.88Zm6.04-4.24v-10.48h4.92v11.16l-4.92-.68ZM440.39 158v-11.08l1.16 3.2L429.39 130h5.56l9.76 16.2h-3.12l9.84-16.2h5.12l-12.16 20.12 1.2-3.2V158h-5.2Zm39.58.4c-2.133 0-4.12-.347-5.96-1.04-1.813-.72-3.4-1.72-4.76-3a14.069 14.069 0 0 1-3.12-4.6c-.747-1.76-1.12-3.68-1.12-5.76 0-2.08.373-4 1.12-5.76.747-1.76 1.8-3.28 3.16-4.56a14.009 14.009 0 0 1 4.76-3c1.813-.72 3.8-1.08 5.96-1.08 2.293 0 4.387.4 6.28 1.2a12.254 12.254 0 0 1 4.8 3.48l-3.36 3.16c-1.013-1.093-2.147-1.907-3.4-2.44-1.253-.56-2.613-.84-4.08-.84s-2.813.24-4.04.72a9.62 9.62 0 0 0-3.16 2.04 9.697 9.697 0 0 0-2.08 3.12c-.48 1.2-.72 2.52-.72 3.96s.24 2.76.72 3.96c.507 1.2 1.2 2.24 2.08 3.12a9.62 9.62 0 0 0 3.16 2.04c1.227.48 2.573.72 4.04.72s2.827-.267 4.08-.8c1.253-.56 2.387-1.4 3.4-2.52l3.36 3.2c-1.307 1.52-2.907 2.68-4.8 3.48-1.893.8-4 1.2-6.32 1.2Zm9.557-.4 12.6-28h5.12l12.64 28h-5.44l-10.84-25.24h2.08l-10.8 25.24h-5.36Zm5.8-6.48 1.4-4.08h15.12l1.4 4.08h-17.92Zm26.121 6.48v-28h11.52c2.48 0 4.6.4 6.36 1.2 1.786.8 3.16 1.947 4.12 3.44.96 1.493 1.44 3.267 1.44 5.32 0 2.053-.48 3.827-1.44 5.32-.96 1.467-2.334 2.6-4.12 3.4-1.76.773-3.88 1.16-6.36 1.16h-8.64l2.32-2.36V158h-5.2Zm18.32 0-7.08-10.16h5.559l7.121 10.16h-5.6Zm-13.12-9.96-2.32-2.48h8.4c2.293 0 4.013-.493 5.159-1.48 1.174-.987 1.761-2.36 1.761-4.12 0-1.787-.587-3.16-1.761-4.12-1.146-.96-2.866-1.44-5.159-1.44h-8.4l2.32-2.56v16.2Zm26.857-6.4h13.92v4.28h-13.92v-4.28Zm.4 12h15.8V158h-21v-28h20.44v4.36h-15.24v19.28Z"/></g><defs><clipPath id="a"><path fill="#fff" d="M0 0h573v197H0z"/></clipPath></defs></svg>