<svg xmlns="http://www.w3.org/2000/svg" width="429" height="71" fill="none"><g fill="#013334" clip-path="url(#a)"><path d="M72.537 31.714a61.843 61.843 0 0 1 8.273-1.923c-.113-4.664-.733-8.517-1.182-10.732a63.55 63.55 0 0 0-8.232 3.772 36.08 36.08 0 0 1 1.084 6.828c.043.688.06 1.373.057 2.055ZM83.43 49.774c2.784-5.622 4.321-11.15 5.064-14.904-10.207.44-32.267-1.872-39.857 28.069-.51 2.014-1.446 4.84-2.205 6.992 2.34-.324 24.966 4.156 36.999-20.157Z"/><path d="M88.059 49.18c-.356.788-.73 1.58-1.134 2.374-4.465 8.772-10.554 14.89-18.183 18.31 21.808 2.524 40.155-10.962 40.155-10.962s-8.561-6.466-20.838-9.722ZM51.387 45.153c4.002-4.814 9.221-8.628 15.636-11.407a48.968 48.968 0 0 1 1.538-.634c.062-1.059.07-2.126.006-3.202C67.737 15.714 56.627 3.74 52.784 0 50.34 2.442 44.93 8.351 41.22 16.102c-2.92 6.102-4.199 11.993-3.852 17.646 5.806 2.846 10.488 6.66 14.02 11.405ZM18.15 50.539c-.088-.17-.17-.335-.255-.503C7.063 53.497 7.632 53.133 0 58.902c0 0 17.74 13.041 39.064 11.077-8.822-3.32-15.842-9.84-20.913-19.44ZM16.337 34.084c.813 3.684 2.381 9.129 5.281 14.62 5.103 9.662 12.326 15.872 21.488 18.48.212-.585 1.45-10.456 5.963-18.005-7.255-13.157-24.71-14.92-32.732-15.096ZM34.532 23.079a63.163 63.163 0 0 0-8.69-4.022 63.756 63.756 0 0 0-1.174 10.452c2.81.574 5.786 1.386 8.767 2.528a36.515 36.515 0 0 1 1.097-8.958ZM132.156 38.849V8.697h6.105c3.882 0 5.202 2.374 5.202 6.935 0 4.108-.49 6.445-1.659 7.575v.227c.98.339 1.282 2.11 1.659 6.52l.753 8.895h-3.769l-.49-8.895c-.263-4.485-.942-5.427-2.073-5.427h-1.959v14.322h-3.769Zm3.769-17.338h2.336c1.32 0 1.696-1.319 1.696-5.88 0-2.977-.565-3.919-1.696-3.919h-2.336v9.8Zm11.307 17.338v-15.83c0-10.515 0-14.661 5.653-14.661s5.653 4.146 5.653 14.661v15.83h-3.769V30.18h-3.768v8.669h-3.769Zm3.769-11.684h3.768v-4.146c0-9.8 0-11.646-1.884-11.646s-1.884 1.847-1.884 11.646v4.146Zm11.306 11.684V8.697h5.654c5.653 0 5.653 4.146 5.653 14.284 0 11.684 0 15.868-5.653 15.868h-5.654Zm3.769-3.77h1.885c2.111 0 2.111-1.582 2.111-12.098 0-9.422 0-11.269-2.111-11.269h-1.885V35.08Zm10.93 3.77V8.697h3.769v30.152h-3.769Zm7.538 0v-15.83c0-10.515 0-14.661 5.654-14.661 5.653 0 5.653 4.146 5.653 14.661v15.83h-3.769V30.18h-3.769v8.669h-3.769Zm3.769-11.684h3.769v-4.146c0-9.8 0-11.646-1.884-11.646-1.885 0-1.885 1.847-1.885 11.646v4.146Zm9.8-15.076V8.697h11.307v3.392h-3.769v26.76h-3.769v-26.76h-3.769Zm13.568 26.76V8.697h3.769v30.152h-3.769Zm7.161-15.868c0-10.515.226-14.661 5.88-14.661 5.653 0 5.879 4.146 5.879 14.661 0 12.061-.226 16.245-5.879 16.245-5.654 0-5.88-4.184-5.88-16.245Zm3.769 0c0 10.893 0 12.476 2.111 12.476 2.11 0 2.11-1.583 2.11-12.476 0-9.799 0-11.646-2.11-11.646-2.111 0-2.111 1.847-2.111 11.646Zm11.382 15.868V8.697h3.392l4.938 18.468-.038-.377V8.697h3.769v30.152h-3.392l-4.937-16.584.037.377V38.85h-3.769Zm23.745-15.868c0-10.515.226-14.661 5.879-14.661 5.654 0 5.88 4.146 5.88 14.661 0 12.061-.226 16.245-5.88 16.245-5.653 0-5.879-4.184-5.879-16.245Zm3.769 0c0 10.893 0 12.476 2.11 12.476 2.111 0 2.111-1.583 2.111-12.476 0-9.799 0-11.646-2.111-11.646-2.11 0-2.11 1.847-2.11 11.646Zm11.382 15.868V8.697h3.392l4.938 18.468-.038-.377V8.697h3.769v30.152h-3.392l-4.938-16.584.038.377V38.85h-3.769Zm15.453-15.868c0-10.515 0-14.661 5.276-14.661 3.883 0 4.938 2.374 5.202 8.066h-3.505c-.151-4.109-.566-5.05-1.697-5.05-1.733 0-1.733 1.846-1.733 11.645 0 10.893 0 12.476 1.733 12.476 1.244 0 1.621-.943 1.697-5.805h3.542c-.226 6.973-1.168 9.574-5.239 9.574-5.276 0-5.276-4.184-5.276-16.245Zm12.777 0c0-10.515.226-14.661 5.879-14.661 5.654 0 5.88 4.146 5.88 14.661 0 12.061-.226 16.245-5.88 16.245-5.653 0-5.879-4.184-5.879-16.245Zm3.769 0c0 10.893 0 12.476 2.11 12.476 2.111 0 2.111-1.583 2.111-12.476 0-9.799 0-11.646-2.111-11.646-2.11 0-2.11 1.847-2.11 11.646ZM316.27 38.85V8.697h3.769V35.08h4.9v3.769h-8.669Zm10.553-15.868c0-10.515.226-14.661 5.88-14.661 5.653 0 5.879 4.146 5.879 14.661 0 12.061-.226 16.245-5.879 16.245-5.654 0-5.88-4.184-5.88-16.245Zm3.769 0c0 10.893 0 12.476 2.111 12.476 2.11 0 2.11-1.583 2.11-12.476 0-9.799 0-11.646-2.11-11.646-2.111 0-2.111 1.847-2.111 11.646Zm11.006 0c0-10.515 0-14.661 5.653-14.661 4.297 0 5.314 2.374 5.578 8.066h-3.505c-.151-4.109-.565-5.05-2.073-5.05-2.111 0-2.111 1.846-2.111 11.645 0 10.893 0 12.476 2.111 12.476 1.998 0 2.111-1.433 2.111-9.423h-2.488V23.02h6.03v1.47c0 10.553 0 14.737-5.653 14.737s-5.653-4.184-5.653-16.245Zm12.814-14.284h3.769l2.261 11.608h.377l2.262-11.608h3.769l-4.335 17.036v13.116h-3.769V25.733l-4.334-17.036Zm22.614 14.284c0-10.515 0-14.661 5.276-14.661 3.882 0 4.938 2.374 5.202 8.066h-3.506c-.15-4.109-.565-5.05-1.696-5.05-1.733 0-1.733 1.846-1.733 11.645 0 10.893 0 12.476 1.733 12.476 1.244 0 1.621-.943 1.696-5.805h3.543c-.226 6.973-1.168 9.574-5.239 9.574-5.276 0-5.276-4.184-5.276-16.245ZM390.18 38.85v-15.83c0-10.515 0-14.661 5.653-14.661s5.653 4.146 5.653 14.661v15.83h-3.768V30.18h-3.769v8.669h-3.769Zm3.769-11.684h3.769v-4.146c0-9.8 0-11.646-1.885-11.646-1.884 0-1.884 1.847-1.884 11.646v4.146Zm11.306 11.684V8.697h6.106c3.882 0 5.201 2.374 5.201 6.935 0 4.108-.49 6.445-1.658 7.575v.227c.98.339 1.281 2.11 1.658 6.52l.754 8.895h-3.769l-.49-8.895c-.264-4.485-.942-5.427-2.073-5.427h-1.96v14.322h-3.769Zm3.769-17.338h2.337c1.319 0 1.696-1.319 1.696-5.88 0-2.977-.565-3.919-1.696-3.919h-2.337v9.8Zm11.307 17.338V8.697H429v3.015h-4.9v9.8h4.146v3.015H424.1V35.08h4.9v3.769h-8.669ZM133.544 60.144c.045.015.182.015.318.015.303 0 .394-1.092.425-1.32.015-.181.06-.197.212-.227.758-.09 1.137-.03 1.896-.015.167 0 .258.076.303.212l.106.35c.091.257.167.575.258.833.061.182.076.167.258.167.242 0 1.122 0 1.38-.015.349 0 .106-.713.061-.834-.137-.425-.167-.865-.304-1.29-.06-.181-1.789-8.386-1.865-8.84-.106-.274-.015-.289-.258-.289-.516 0-1.062.03-1.592 0-.213 0-.198.06-.228.288-.03.212-.576 2.624-.788 3.625-.273 1.258-.516 2.472-.819 3.715-.107.44-.835 3.61-.744 3.625.046.03.122.015.182.015.38 0 .728 0 1.199-.015Zm1.986-3.443h-.318c-.425 0-.44 0-.334-.44.076-.333.485-2.138.576-2.578.016-.03.046-.06.061-.06.03 0 .061.03.076.045.061.182.121.637.182.82.136.575.227 1.06.364 1.682.136.546.076.546-.197.546-.137 0-.273-.015-.41-.015Zm15.797 1.911c.015.47.015.94.03 1.41 0 .213.015.243.228.243h1.364c.289 0 .228-.485.213-.743l.045-8.493c0-.227.076-.303.379-.303h1.335c.318 0 .243-.546.243-.925 0-.334.121-.91-.243-.91-.258 0-2.73 0-3.746.015-.5 0-.91-.015-1.41-.015-.379 0-.364.303-.364.97 0 .425-.015.85.349.85.212 0 1.076 0 1.319.015.152 0 .258.046.288.212 0 .046.015.091.015.137 0 1.092-.076 6.172-.045 7.537Zm29.363-9.706c-.151 0-.303.015-.455.015-.227 0-.5-.045-.546.258-.151 1.29-.288 2.715-.439 4.004-.258 2.123-.501 4.307-.743 6.43-.031.288-.061.561.257.622.486.03.85.03 1.259.015.152.015.319.03.364-.152.03-.075.03-.151.03-.227.031-.349.486-4.717.668-4.717.288 0 1.046 3.55 1.41 4.853.046.182.137.258.319.243.379-.03.743 0 1.122 0 .379 0 .303-.243.379-.561.091-.349.971-4.55 1.183-4.55.242 0 .743 4.868.788 4.974.091.213.349.122.531.122.273 0 .531.03.88 0 .258-.03.515.06.531-.273 0-.076-.031-.152-.046-.228-.061-.379-.136-.834-.212-1.213-.106-.788-.258-1.562-.364-2.35a315.787 315.787 0 0 1-.44-3.731c-.106-1.062-.258-2.26-.349-3.322-.03-.348-.424-.227-.667-.227h-1.046c-.167 0-.243.319-.273.485-.091.425-1.138 5.9-1.487 5.9-.348 0-1.471-5.005-1.668-6.097-.045-.242-.212-.318-.44-.318l-.546.045Zm18.072 8.25h-.015c0 .38-.016.774 0 1.168.015.485.045.97.075 1.456 0 .167.046.212.197.242.319.076.622.092.941.092.819-.03 1.638.03 2.457 0 .333-.016.485.015.819-.046.303-.06.409-.227.409-.682-.03-.289-.015-.41-.015-.759 0-.5-.349-.667-.652-.652-.213.015-1.229-.015-1.638-.015-.683.015-.576.106-.576-.607 0-.576.015-1.319.015-1.91 0-.319.03-.425.333-.425h1.896c.303.045.516-.167.516-.485 0-.319.03-.334.03-.653l-.046-.455c-.03-.257-.121-.348-.379-.348-.166 0-.333.015-.5.03-.652.046-.956-.045-1.592 0-.213 0-.243-.03-.258-.227-.061-.592 0-1.244.06-1.836.016-.242.076-.288.304-.303l2.138-.015c.288-.03.379-.015.364-.303-.03-.44.015-.895-.03-1.335-.031-.242-.107-.288-.379-.288-.455.015-.562.015-1.017.046-.455.015-2.274.015-2.714.015-.637 0-.683-.046-.698.728-.03.606-.015 1.228-.015 1.85 0 1.061-.061 4.868-.03 5.717Zm17.282 1.972c0-.395 0-2.882.016-3.079.015-.045.045-.136.106-.136.06 0 .091.03.106.076.606 1.182 1.137 2.365 1.683 3.518.076.167.243.652.288.698.061.09.167.06.258.06l1.668.015c.198 0 .243-.121.198-.288-.122-.455-.986-2.062-1.183-2.457-.137-.303-1.047-2.062-1.077-2.199-.03-.06.197-.166.227-.212.728-.652 1.38-1.32 1.517-2.336.152-1-.076-2.092-.728-2.896-.5-.592-1.153-.94-1.926-.986-.47-.03-.925.015-1.395 0-.41-.015-.698-.015-1.214-.015-.242 0-.394.137-.409.394v.182c-.03 1.168 0 2.336.015 3.488 0 1.76-.03 6.4-.03 7.068 0 .197.03.242.212.242.106 0 .228.015.334.015.424 0 .682-.015 1.122-.015.334 0 .212-.546.212-1.137Zm0-5.915.016-1.532c.015-.227-.061-.682.151-.849.288-.212.88 0 1.138.182.758.516.697 1.79.288 2.502-.197.334-.531.531-.91.637-.228.061-.652.137-.667-.227 0-.243-.016-.713-.016-.713Zm16.949 3.14c-.045-1.73-.03-3.565-.015-5.278 0-.531-.03-1.107-.03-1.638 0-.576-.228-.546-.531-.561-.44-.015-.637-.015-1.077-.015-.288-.015-.409.06-.409.349 0 1.486-.046 5.687-.03 6.293.015.607.075 3.367.045 3.974-.015.212 0 .424.015.637.015.075.061.151.182.151.501-.03.971-.03 1.471-.045.182-.015.334-.061.41-.258.015-.106-.031-2.882-.031-3.61Zm16.934 1.122c.091-.197.167-.395.243-.592.167-.485.197-.986.243-1.486.091-1.062.06-2.138-.213-3.17-.333-1.319-1.183-2.532-2.456-3.093-.577-.258-1.229-.288-1.851-.273-.652 0-1.319-.03-1.971.03-.182.015-.273.106-.304.273-.03.182-.06.364-.06.53.03.926 0 3.67.03 4.126.015.41-.03.91-.03 1.32.015 1.015 0 2.047 0 3.063 0 .424-.015.834-.015 1.258 0 .455-.167.653 1.076.653 1.107 0 2.26-.091 3.306-.486.971-.349 1.578-1.243 2.002-2.153Zm-4.413-1.578v-1.82c0-1.152.03-1.895-.015-2.866v-.182c.015-.318.061-.333.394-.333.44-.015.759.09 1.138.242.379.152.591.486.788.804.379.622.531 1.304.561 2.017.016.41.031.82.031 1.228 0 1.942-1.138 3.291-2.139 3.291-.667 0-.773.046-.773-.394 0-.455.03-.91.03-1.365-.015-.197-.015-.41-.015-.621Zm17.556.456c-.046-1.73-.03-3.565-.015-5.278 0-.531-.031-1.107-.031-1.638 0-.576-.227-.546-.53-.561-.44-.015-.637-.015-1.077-.015-.288-.015-.41.06-.41.349 0 1.486-.045 5.687-.03 6.293.015.607.076 3.367.045 3.974-.015.212 0 .424.016.637.015.075.06.151.182.151.5-.03.97-.03 1.471-.045.182-.015.333-.061.409-.258.015-.106-.03-2.882-.03-3.61Zm11.944 3.79c.046.016.182.016.319.016.303 0 .394-1.092.424-1.32.016-.181.061-.197.213-.227.758-.09 1.137-.03 1.895-.015.167 0 .258.076.304.212l.106.35c.091.257.167.575.258.833.06.182.076.167.258.167.242 0 1.122 0 1.38-.015.348 0 .106-.713.06-.834-.136-.425-.167-.865-.303-1.29-.061-.181-1.79-8.386-1.865-8.84-.107-.274-.016-.289-.258-.289-.516 0-1.062.03-1.593 0-.212 0-.197.06-.227.288-.03.212-.576 2.624-.789 3.625-.273 1.258-.515 2.472-.819 3.715-.106.44-.834 3.61-.743 3.625.046.03.122.015.182.015.379 0 .728 0 1.198-.015Zm1.987-3.442h-.319c-.424 0-.439 0-.333-.44.076-.333.485-2.138.576-2.578.015-.03.046-.06.061-.06.03 0 .06.03.076.045.06.182.121.637.182.82.136.575.227 1.06.364 1.682.136.546.075.546-.198.546-.136 0-.273-.015-.409-.015Zm20.331-7.461c.045.212.015 10.312.015 10.57 0 .455-.167.44-.47.44-.455 0-1.092.076-1.228-.076-.122-.106-2.366-5.52-2.685-6.203-.03-.06-.106-.212-.167-.181-.075.03-.045.136-.045.197-.015.53.076 5.11.076 5.838 0 .364-.015.425-.319.425h-.758c-.197 0-.44-.015-.637.015-.152 0-.227-.045-.243-.197V58.87c.031-1.274 0-8.826 0-9.388 0-.485.137-.576.622-.576.334-.015.667-.015 1.001-.015.106 0 .167.015.228.152.409.955 2.153 5.338 2.426 5.869.046.106.212.53.303.576h.016c.06-.06.045-.364.045-.455 0-.227-.121-5.55-.121-5.657 0-.151-.046-.288.03-.394.046-.06.243-.076.319-.091.424-.03.925.015 1.349 0 .213 0 .197.152.243.349Zm23.358 1.638c.015.894.015 8.492.015 9.114 0 .228.031.273.258.273.516 0 .516.015 1.031 0 .106 0 .288 0 .379-.045.107-.046.046-3.625.046-3.822 0-.212.425-.167.546-.167 2.532 0 3.23-1.82 3.23-3.367 0-1.395-.273-3.973-3.427-3.973-.546 0-1.107.015-1.638.015-.122 0-.273-.015-.379.06-.122.092-.076 1.441-.061 1.912Zm1.744 3.124c0-.334-.015-2.32 0-2.927 0-.091-.015-.197 0-.303.046-.167.243-.167.394-.152.88.06 1.38.834 1.456 1.653.061.591-.015 1.471-.44 1.941a1.607 1.607 0 0 1-1.213.516c-.106 0-.212-.122-.212-.228 0-.167 0-.333.015-.5Zm15.675 6.142c.046.015.182.015.319.015.303 0 .394-1.092.424-1.32.015-.181.061-.197.213-.227.758-.09 1.137-.03 1.895-.015.167 0 .258.076.304.212l.106.35c.091.257.167.575.258.833.06.182.075.167.257.167.243 0 1.123 0 1.38-.015.349 0 .107-.713.061-.834-.136-.425-.167-.865-.303-1.29-.061-.181-1.79-8.386-1.866-8.84-.106-.274-.015-.289-.257-.289-.516 0-1.062.03-1.593 0-.212 0-.197.06-.227.288-.031.212-.577 2.624-.789 3.625-.273 1.258-.515 2.472-.819 3.715-.106.44-.834 3.61-.743 3.625.046.03.121.015.182.015.379 0 .728 0 1.198-.015Zm1.987-3.443h-.319c-.424 0-.439 0-.333-.44.076-.333.485-2.138.576-2.578.015-.03.046-.06.061-.06.03 0 .06.03.076.045.06.182.121.637.182.82.136.575.227 1.06.364 1.682.136.546.075.546-.198.546-.136 0-.273-.015-.409-.015Zm15.751 2.427c0-.395 0-2.882.015-3.079.015-.045.046-.136.106-.136.061 0 .091.03.106.076.607 1.182 1.138 2.365 1.684 3.518.076.167.242.652.288.698.061.09.167.06.258.06l1.668.015c.197 0 .243-.121.197-.288-.121-.455-.986-2.062-1.183-2.457-.136-.303-1.046-2.062-1.077-2.199-.03-.06.198-.166.228-.212.728-.652 1.38-1.32 1.516-2.336.152-1-.075-2.092-.728-2.896-.5-.592-1.152-.94-1.926-.986-.47-.03-.925.015-1.395 0-.409-.015-.697-.015-1.213-.015-.243 0-.394.137-.409.394v.182c-.031 1.168 0 2.336.015 3.488 0 1.76-.031 6.4-.031 7.068 0 .197.031.242.213.242.106 0 .227.015.333.015.425 0 .683-.015 1.123-.015.333 0 .212-.546.212-1.137Zm0-5.915.015-1.532c.015-.227-.061-.682.152-.849.288-.212.879 0 1.137.182.758.516.698 1.79.288 2.502-.197.334-.531.531-.91.637-.227.061-.652.137-.667-.227 0-.243-.015-.713-.015-.713Zm16.919 4.307c0-.53-.076-1.971-.061-2.275 0-.045.03-.106.045-.106a.23.23 0 0 1 .107.046c.485.637 2.76 5.05 3.033 5.065.076.015.151.015.227.015.516-.03.971 0 1.486 0 .531 0 .182-.516.091-.652-.136-.197-1.941-3.427-2.047-3.624-.303-.516-.561-1.077-.864-1.578-.031-.06-.061-.151-.046-.212a2 2 0 0 1 .152-.516c.364-.712.743-1.44 1.183-2.123.485-.773.758-1.259 1.152-1.956.091-.167.152-.349.213-.546.015-.076-.046-.152-.137-.152-.288-.015-1.334 0-1.668 0-.152 0-.303.03-.379.167-.197.38-2.23 4.095-2.427 4.428-.015.03-.06.046-.106.046 0 0-.03-.046-.03-.076-.015-.85.136-3.625.106-4.186-.015-.333-.076-.364-.41-.379-.363-.015-.864-.015-1.228-.015-.334 0-.364.182-.409.425-.016.045-.016 1.47-.016 2.108 0 .925-.075 6.718.031 8.553 0 .182.045.288.197.288.409-.03 1.016 0 1.425 0 .289 0 .334-.03.334-.516 0-.652.061-1.243.061-2.047 0-.06-.015-.121-.015-.182Z"/></g><defs><clipPath id="a"><path fill="#fff" d="M0 0h429v70.181H0z"/></clipPath></defs></svg>